<svg width="24" height="24" viewBox="0 0 24 24" fill="none" xmlns="http://www.w3.org/2000/svg">
<path d="M11 21C11 18.5 13 18.5 13 16M16 21C16 18.5 18 18.5 18 16M19 8L18.2 11C18.1433 11.2782 17.9935 11.5288 17.7754 11.7105C17.5573 11.8923 17.2839 11.9944 17 12H7C6.71615 11.9944 6.44267 11.8923 6.22456 11.7105C6.00646 11.5288 5.85673 11.2782 5.8 11L5 8M6 21C6 18.5 8 18.5 8 16M21 3C21.2652 3 21.5196 3.10536 21.7071 3.29289C21.8946 3.48043 22 3.73478 22 4V6C22 6.53043 21.7893 7.03914 21.4142 7.41421C21.0391 7.78929 20.5304 8 20 8H4C3.46957 8 2.96086 7.78929 2.58579 7.41421C2.21071 7.03914 2 6.53043 2 6V4C2 3.73478 2.10536 3.48043 2.29289 3.29289C2.48043 3.10536 2.73478 3 3 3H21Z" stroke="#09090B" stroke-width="2" stroke-linecap="round" stroke-linejoin="round"/>
</svg>
