<svg width="24" height="24" viewBox="0 0 24 24" fill="none" xmlns="http://www.w3.org/2000/svg">
<path d="M15.477 12.8899L16.992 21.4159C17.009 21.5163 16.9949 21.6195 16.9516 21.7116C16.9084 21.8038 16.838 21.8806 16.7499 21.9317C16.6619 21.9828 16.5603 22.0058 16.4588 21.9976C16.3573 21.9894 16.2607 21.9504 16.182 21.8859L12.602 19.1989C12.4292 19.0698 12.2192 19 12.0035 19C11.7878 19 11.5778 19.0698 11.405 19.1989L7.819 21.8849C7.74032 21.9493 7.64386 21.9882 7.54249 21.9964C7.44112 22.0046 7.33967 21.9817 7.25166 21.9308C7.16365 21.8798 7.09327 21.8032 7.04991 21.7112C7.00656 21.6192 6.99228 21.5162 7.009 21.4159L8.523 12.8899M18 8C18 11.3137 15.3137 14 12 14C8.68629 14 6 11.3137 6 8C6 4.68629 8.68629 2 12 2C15.3137 2 18 4.68629 18 8Z" stroke="#09090B" stroke-width="2" stroke-linecap="round" stroke-linejoin="round"/>
</svg>
