<svg width="24" height="24" viewBox="0 0 24 24" fill="none" xmlns="http://www.w3.org/2000/svg">
<path d="M9.00021 9C8.36021 9.64 7.47921 9.954 6.59821 10.165C5.16877 10.5073 3.91472 11.3625 3.07399 12.5682C2.23327 13.7738 1.86437 15.2462 2.03728 16.7058C2.2102 18.1655 2.9129 19.5109 4.01205 20.4868C5.11121 21.4627 6.53035 22.0011 8.00021 22C9.83909 22.0023 11.6603 21.6413 13.3593 20.9377C15.0582 20.2341 16.6014 19.2018 17.9002 17.9M10.75 5.09307C11.3941 3.929 12.4067 3.01199 13.6288 2.48623C14.8509 1.96047 16.213 1.85578 17.5011 2.18861C18.7892 2.52145 19.9301 3.27293 20.7445 4.32491C21.5588 5.37689 22.0005 6.6697 22 8.00007C22 10.4111 21.39 12.6801 20.317 14.6601M5.34082 10.6201C5.60388 11.2142 6.00771 11.7353 6.5174 12.1383C7.02709 12.5413 7.62728 12.8141 8.26607 12.9331C8.90486 13.052 9.56301 13.0136 10.1836 12.821C10.8042 12.6285 11.3685 12.2877 11.8278 11.8281M10.6198 5.34106C11.5287 5.74504 12.2553 6.47198 12.6588 7.38106M2 2L22 22" stroke="#09090B" stroke-width="2" stroke-linecap="round" stroke-linejoin="round"/>
</svg>
