<svg width="24" height="24" viewBox="0 0 24 24" fill="none" xmlns="http://www.w3.org/2000/svg">
<path d="M6 12H15C16.0609 12 17.0783 12.4214 17.8284 13.1716C18.5786 13.9217 19 14.9391 19 16C19 17.0609 18.5786 18.0783 17.8284 18.8284C17.0783 19.5786 16.0609 20 15 20H7C6.73478 20 6.48043 19.8946 6.29289 19.7071C6.10536 19.5196 6 19.2652 6 19V5C6 4.73478 6.10536 4.48043 6.29289 4.29289C6.48043 4.10536 6.73478 4 7 4H14C15.0609 4 16.0783 4.42143 16.8284 5.17157C17.5786 5.92172 18 6.93913 18 8C18 9.06087 17.5786 10.0783 16.8284 10.8284C16.0783 11.5786 15.0609 12 14 12" stroke="#09090B" stroke-width="2" stroke-linecap="round" stroke-linejoin="round"/>
</svg>
