<svg width="24" height="24" viewBox="0 0 24 24" fill="none" xmlns="http://www.w3.org/2000/svg">
<path d="M11.9998 5.00005C12.001 4.60008 11.9222 4.20391 11.768 3.83485C11.6139 3.46579 11.3874 3.13128 11.1021 2.851C10.8168 2.57072 10.4783 2.35032 10.1065 2.20278C9.73472 2.05524 9.33721 1.98353 8.93733 1.99186C8.53744 2.0002 8.14326 2.08841 7.77797 2.25132C7.41268 2.41422 7.08365 2.64853 6.81023 2.94045C6.53682 3.23238 6.32454 3.57604 6.18588 3.9512C6.04722 4.32637 5.98499 4.72548 6.00283 5.12505M11.9998 5.00005V18M11.9998 5.00005C11.9987 4.60008 12.0776 4.20391 12.2318 3.83485C12.386 3.46579 12.6124 3.13128 12.8977 2.851C13.1831 2.57072 13.5216 2.35032 13.8934 2.20278C14.2651 2.05524 14.6626 1.98353 15.0625 1.99186C15.4624 2.0002 15.8566 2.08841 16.2219 2.25132C16.5872 2.41422 16.9162 2.64853 17.1896 2.94045C17.463 3.23238 17.6753 3.57604 17.814 3.9512C17.9526 4.32637 18.0149 4.72548 17.997 5.12505C18.5848 5.27619 19.1305 5.5591 19.5928 5.95236C20.0551 6.34562 20.4218 6.83892 20.6652 7.3949C20.9086 7.95087 21.0223 8.55494 20.9976 9.16136C20.973 9.76778 20.8107 10.3606 20.523 10.8951M6.00283 5.12505C5.41503 5.27619 4.86933 5.5591 4.40706 5.95236C3.94479 6.34562 3.57807 6.83892 3.33467 7.3949C3.09128 7.95087 2.97759 8.55494 3.00222 9.16136C3.02685 9.76778 3.18915 10.3606 3.47683 10.8951M6.00283 5.12505C6.02261 5.60878 6.15926 6.0805 6.40093 6.5M3.47683 10.8951C2.97101 11.306 2.57326 11.8343 2.31817 12.434C2.06308 13.0337 1.95839 13.6866 2.01319 14.336C2.068 14.9854 2.28065 15.6116 2.63264 16.1601C2.98462 16.7085 3.46529 17.1627 4.03283 17.4831M3.47683 10.8951C3.65977 10.7461 3.85575 10.6145 4.06205 10.5M4.03283 17.4831C3.96275 18.0253 4.00457 18.5761 4.15572 19.1016C4.30686 19.627 4.56413 20.1159 4.91161 20.538C5.2591 20.9601 5.68944 21.3065 6.17605 21.5558C6.66266 21.8051 7.19521 21.952 7.74081 21.9874C8.28641 22.0228 8.83347 21.946 9.34822 21.7617C9.86296 21.5774 10.3345 21.2895 10.7336 20.9158C11.1327 20.5421 11.451 20.0906 11.6688 19.5891C11.8866 19.0876 11.9992 18.5468 11.9998 18M4.03283 17.4831C4.6331 17.8216 5.31103 18.0002 6.0002 17.9999M11.9998 18C12.0004 18.5468 12.1133 19.0876 12.331 19.5891C12.5488 20.0906 12.8671 20.5421 13.2663 20.9158C13.6654 21.2895 14.1369 21.5774 14.6516 21.7617C15.1664 21.946 15.7134 22.0228 16.259 21.9874C16.8046 21.952 17.3372 21.8051 17.8238 21.5558C18.3104 21.3065 18.7407 20.9601 19.0882 20.538C19.4357 20.1159 19.693 19.627 19.8441 19.1016C19.9953 18.5761 20.0371 18.0253 19.967 17.4831M20.523 10.8951C21.0288 11.306 21.4266 11.8343 21.6817 12.434C21.9368 13.0337 22.0415 13.6866 21.9867 14.336C21.9318 14.9854 21.7192 15.6116 21.3672 16.1601C21.0152 16.7085 20.5345 17.1627 19.967 17.4831M20.523 10.8951C20.3401 10.7461 20.1443 10.6145 19.938 10.5M19.967 17.4831C19.3667 17.8216 18.6892 18.0002 18 17.9999M15 13C14.1604 12.7047 13.4273 12.167 12.8933 11.455C12.3593 10.743 12.0485 9.88867 12 9C11.9515 9.88867 11.6407 10.743 11.1067 11.455C10.5727 12.167 9.83956 12.7047 9 13M17.5991 6.5C17.8411 6.08059 17.978 5.60882 17.9981 5.125" stroke="#09090B" stroke-width="2" stroke-linecap="round" stroke-linejoin="round"/>
</svg>
