<svg width="24" height="24" viewBox="0 0 24 24" fill="none" xmlns="http://www.w3.org/2000/svg">
<path d="M17.5991 6.5C17.8411 6.08059 17.978 5.60882 17.9981 5.125M6.00293 5.125C6.0227 5.60873 6.15926 6.0805 6.40093 6.5M3.47705 10.896C3.65999 10.747 3.85575 10.6145 4.06205 10.5M19.938 10.5C20.1443 10.6145 20.34 10.747 20.523 10.896M6.0002 17.9999C5.31103 18.0002 4.63347 17.8225 4.0332 17.4839M19.967 17.4839C19.3667 17.8225 18.6892 18.0002 18 17.9999M15.6998 10.3999L14.7998 10.7999M9.1998 13.2L8.2998 13.6M13.6002 15.7L13.2002 14.8M10.7999 9.20005L10.3999 8.30005M15.6998 13.5001L14.7998 13.1001M9.1998 10.9L8.2998 10.5M10.5 15.7L10.9 14.8M13.1001 9.20005L13.5001 8.30005M11.9998 4.99994C11.9988 4.60068 11.918 4.20566 11.7623 3.83802C11.6066 3.47037 11.379 3.13751 11.093 2.85894C10.807 2.58037 10.4682 2.3617 10.0966 2.21573C9.72499 2.06976 9.32797 1.99945 8.92883 2.0089C8.52968 2.01835 8.13643 2.10738 7.77214 2.27077C7.40784 2.43416 7.07982 2.66863 6.80731 2.96042C6.5348 3.25222 6.32327 3.59547 6.18513 3.97007C6.04699 4.34467 5.98501 4.74308 6.00283 5.14194C5.41503 5.29308 4.86933 5.57599 4.40706 5.96925C3.94479 6.36252 3.57807 6.85582 3.33467 7.41179C3.09128 7.96777 2.97759 8.57184 3.00222 9.17826C3.02685 9.78467 3.18915 10.3775 3.47683 10.9119C2.97101 11.3229 2.57326 11.8512 2.31817 12.4509C2.06308 13.0506 1.95839 13.7035 2.01319 14.3529C2.068 15.0023 2.28065 15.6285 2.63264 16.177C2.98462 16.7254 3.46529 17.1796 4.03283 17.4999C3.90929 18.4558 4.135 19.4241 4.66846 20.2267C5.20192 21.0294 6.00725 21.6125 6.93634 21.8687C7.86543 22.125 8.8558 22.0371 9.72529 21.6214C10.5948 21.2057 11.2849 20.49 11.6688 19.6059C11.7396 19.4292 11.7945 19.2465 11.8328 19.0599C11.8608 18.9299 12.1388 18.9299 12.1678 19.0599C12.2058 19.2464 12.2604 19.4292 12.3308 19.6059C12.7147 20.49 13.4049 21.2057 14.2744 21.6214C15.1439 22.0371 16.1342 22.125 17.0633 21.8687C17.9924 21.6125 18.7977 21.0294 19.3312 20.2267C19.8647 19.4241 20.0904 18.4558 19.9668 17.4999C20.5344 17.1796 21.015 16.7254 21.367 16.177C21.719 15.6285 21.9317 15.0023 21.9865 14.3529C22.0413 13.7035 21.9366 13.0506 21.6815 12.4509C21.4264 11.8512 21.0287 11.3229 20.5228 10.9119C20.8105 10.3775 20.9728 9.78467 20.9974 9.17826C21.0221 8.57184 20.9084 7.96777 20.665 7.41179C20.4216 6.85582 20.0549 6.36252 19.5926 5.96925C19.1303 5.57599 18.5846 5.29308 17.9968 5.14194C18.0146 4.74308 17.9527 4.34467 17.8145 3.97007C17.6764 3.59547 17.4649 3.25222 17.1924 2.96042C16.9198 2.66863 16.5918 2.43416 16.2275 2.27077C15.8632 2.10738 15.47 2.01835 15.0708 2.0089C14.6717 1.99945 14.2747 2.06976 13.903 2.21573C13.5314 2.3617 13.1927 2.58037 12.9067 2.85894C12.6206 3.13751 12.3931 3.47037 12.2374 3.83802C12.0817 4.20566 12.0009 4.60068 11.9998 4.99994ZM15 12C15 13.6569 13.6569 15 12 15C10.3431 15 9 13.6569 9 12C9 10.3431 10.3431 9 12 9C13.6569 9 15 10.3431 15 12Z" stroke="#09090B" stroke-width="2" stroke-linecap="round" stroke-linejoin="round"/>
</svg>
