<svg width="24" height="24" viewBox="0 0 24 24" fill="none" xmlns="http://www.w3.org/2000/svg">
<path d="M15.1998 16.9L14.2998 16.5M15.1998 19.1001L14.2998 19.5001M16 2V6M16.9 15.2L16.5 14.3M16.9 20.8L16.5 21.7001M19.5001 14.3L19.1001 15.2M19.5001 21.7001L19.1001 20.8M21 10.5V6C21 5.46957 20.7893 4.96086 20.4142 4.58579C20.0391 4.21071 19.5304 4 19 4H5C4.46957 4 3.96086 4.21071 3.58579 4.58579C3.21071 4.96086 3 5.46957 3 6V20C3 20.5304 3.21071 21.0391 3.58579 21.4142C3.96086 21.7893 4.46957 22 5 22H11M21.6998 16.5L20.7998 16.9M21.6998 19.5001L20.7998 19.1001M3 10H21M8 2V6M21 18C21 19.6569 19.6569 21 18 21C16.3431 21 15 19.6569 15 18C15 16.3431 16.3431 15 18 15C19.6569 15 21 16.3431 21 18Z" stroke="#09090B" stroke-width="2" stroke-linecap="round" stroke-linejoin="round"/>
</svg>
