<svg width="24" height="24" viewBox="0 0 24 24" fill="none" xmlns="http://www.w3.org/2000/svg">
<g clip-path="url(#clip0_128_536)">
<path d="M17.75 7.0001L15 2.1001M10.8999 4.80005L12.9999 9.00005M7.8999 9.69995L9.8999 14.1M4.8999 14.7L6.9999 18.9M5.6999 20.9999C5.56857 21.2297 5.39327 21.4314 5.184 21.5935C4.97473 21.7556 4.73559 21.8748 4.48023 21.9445C3.9645 22.0851 3.41402 22.0151 2.9499 21.7499C2.48577 21.4847 2.146 21.046 2.00535 20.5303C1.8647 20.0145 1.93468 19.4641 2.1999 18.9999L10.7999 4.99993C11.5955 3.6208 12.9065 2.61423 14.4443 2.20165C15.9821 1.78907 17.6208 2.00428 18.9999 2.79993C20.379 3.59558 21.3856 4.9065 21.7982 6.44429C22.2108 7.98209 21.9955 9.6208 21.1999 10.9999C21.0695 11.2292 20.8951 11.4305 20.6866 11.5921C20.4782 11.7537 20.2398 11.8724 19.9853 11.9415C19.7307 12.0107 19.465 12.0287 19.2035 11.9947C18.9419 11.9607 18.6897 11.8753 18.4612 11.7435C18.2328 11.6116 18.0327 11.4358 17.8725 11.2263C17.7123 11.0168 17.5951 10.7776 17.5277 10.5226C17.4603 10.2676 17.444 10.0018 17.4797 9.74048C17.5154 9.47915 17.6025 9.22747 17.7359 8.99993C17.8693 8.77239 17.9564 8.52071 17.9921 8.25938C18.0278 7.99805 18.0115 7.73224 17.9441 7.47724C17.8767 7.22224 17.7595 6.98309 17.5993 6.77357C17.4391 6.56405 17.239 6.38829 17.0105 6.2564C16.7821 6.12452 16.5299 6.03912 16.2683 6.00512C16.0068 5.97113 15.7411 5.9892 15.4865 6.05831C15.232 6.12742 14.9936 6.24619 14.7851 6.40779C14.5767 6.5694 14.4023 6.77064 14.2719 6.99993L5.6999 20.9999Z" stroke="#09090B" stroke-width="2" stroke-linecap="round" stroke-linejoin="round"/>
</g>
<defs>
<clipPath id="clip0_128_536">
<rect width="24" height="24" fill="white"/>
</clipPath>
</defs>
</svg>
