<svg width="24" height="24" viewBox="0 0 24 24" fill="none" xmlns="http://www.w3.org/2000/svg">
<path d="M16.7502 12H20.3822C20.5525 12.0001 20.7201 12.0437 20.8689 12.1267C21.0177 12.2098 21.1428 12.3294 21.2324 12.4744C21.3219 12.6194 21.3729 12.7848 21.3806 12.955C21.3883 13.1252 21.3523 13.2946 21.2762 13.447L19.2422 17.516C19.165 17.6702 19.0494 17.8018 18.9064 17.8981C18.7634 17.9944 18.5979 18.0521 18.426 18.0656C18.2541 18.0791 18.0817 18.0479 17.9254 17.9751C17.7692 17.9022 17.6344 17.7903 17.5342 17.65L15.4102 14.68M2 19H5.76C6.13273 19.0026 6.49877 18.901 6.81682 18.7066C7.13487 18.5122 7.39228 18.2329 7.56 17.9L9 15M2 21V17M7 9H7.01M17.1058 9.05292C17.3429 9.17156 17.5231 9.37945 17.6069 9.6309C17.6907 9.88235 17.6713 10.1568 17.5528 10.3939L14.4468 16.6049C14.3881 16.7224 14.3068 16.8272 14.2075 16.9132C14.1083 16.9993 13.9931 17.0649 13.8684 17.1064C13.7438 17.1479 13.6122 17.1645 13.4812 17.1551C13.3502 17.1458 13.2223 17.1107 13.1048 17.0519L3.60984 12.2999C2.92017 11.9525 2.39619 11.3461 2.15256 10.6133C1.90892 9.88055 1.96548 9.0811 2.30984 8.38992L3.68984 5.59992C3.86184 5.25714 4.09968 4.9516 4.38978 4.70075C4.67987 4.4499 5.01654 4.25866 5.38056 4.13794C5.74458 4.01722 6.12881 3.96939 6.51131 3.99718C6.89381 4.02497 7.2671 4.12784 7.60984 4.29992L17.1058 9.05292Z" stroke="#09090B" stroke-width="2" stroke-linecap="round" stroke-linejoin="round"/>
</svg>
