<svg width="24" height="24" viewBox="0 0 24 24" fill="none" xmlns="http://www.w3.org/2000/svg">
<g clip-path="url(#clip0_128_654)">
<path d="M10.1001 2.18005C11.355 1.93543 12.6452 1.93543 13.9001 2.18005M17.6001 3.70996C18.6624 4.42822 19.5758 5.34503 20.2901 6.40996M21.8198 10.1001C22.0644 11.355 22.0644 12.6452 21.8198 13.9001M20.2898 17.6001C19.5716 18.6624 18.6548 19.5758 17.5898 20.2901M13.9001 21.8201C12.6452 22.0644 11.355 22.0644 10.1001 21.8201M6.39996 20.2901C5.33769 19.5718 4.42427 18.655 3.70996 17.5901M2.18005 13.9001C1.93543 12.6452 1.93543 11.355 2.18005 10.1001M3.70996 6.39996C4.42822 5.33769 5.34503 4.42427 6.40996 3.70996M13 12C13 12.5523 12.5523 13 12 13C11.4477 13 11 12.5523 11 12C11 11.4477 11.4477 11 12 11C12.5523 11 13 11.4477 13 12Z" stroke="#09090B" stroke-width="2" stroke-linecap="round" stroke-linejoin="round"/>
</g>
<defs>
<clipPath id="clip0_128_654">
<rect width="24" height="24" fill="white"/>
</clipPath>
</defs>
</svg>
