<svg width="24" height="24" viewBox="0 0 24 24" fill="none" xmlns="http://www.w3.org/2000/svg">
<path d="M19.6502 15.6601C18.1364 17.0957 16.1217 17.8833 14.0356 17.8547C11.9495 17.8262 9.95709 16.9839 8.48317 15.5073C7.00925 14.0308 6.17044 12.0369 6.14559 9.95076C6.12074 7.86462 6.91182 5.85131 8.35015 4.34009M14 10L8.5 15.5M14 10L13.9999 17.85M14 10H6.1499M21.6602 17.6699C21.7693 17.7739 21.8555 17.8996 21.9131 18.0389C21.9707 18.1782 21.9986 18.328 21.9948 18.4787C21.991 18.6295 21.9558 18.7777 21.8912 18.914C21.8267 19.0502 21.7344 19.1715 21.6202 19.2699C19.3176 21.1622 16.3932 22.13 13.4164 21.9848C10.4395 21.8396 7.62317 20.5918 5.51571 18.4843C3.40824 16.3769 2.16044 13.5606 2.01524 10.5837C1.87003 7.60683 2.83781 4.68245 4.73017 2.37988C4.83033 2.26674 4.95273 2.17545 5.08973 2.11171C5.22674 2.04796 5.3754 2.01313 5.52646 2.00937C5.67752 2.00562 5.82773 2.03303 5.96773 2.08989C6.10773 2.14676 6.23451 2.23186 6.34017 2.33988L21.6602 17.6699Z" stroke="#09090B" stroke-width="2" stroke-linecap="round" stroke-linejoin="round"/>
</svg>
