<svg width="24" height="24" viewBox="0 0 24 24" fill="none" xmlns="http://www.w3.org/2000/svg">
<path d="M16 4H18C18.5304 4 19.0391 4.21071 19.4142 4.58579C19.7893 4.96086 20 5.46957 20 6V20C20 20.5304 19.7893 21.0391 19.4142 21.4142C19.0391 21.7893 18.5304 22 18 22H12.5M4 13.5V6C4 5.46957 4.21071 4.96086 4.58579 4.58579C4.96086 4.21071 5.46957 4 6 4H8M9 2H15C15.5523 2 16 2.44772 16 3V5C16 5.55228 15.5523 6 15 6H9C8.44772 6 8 5.55228 8 5V3C8 2.44772 8.44772 2 9 2ZM13.378 15.6259C13.5752 15.4287 13.7317 15.1945 13.8384 14.9368C13.9452 14.6791 14.0001 14.4029 14.0001 14.1239C14.0001 13.845 13.9452 13.5687 13.8384 13.311C13.7317 13.0533 13.5752 12.8191 13.378 12.6219C13.1807 12.4247 12.9466 12.2682 12.6889 12.1614C12.4311 12.0547 12.1549 11.9998 11.876 11.9998C11.597 11.9998 11.3208 12.0547 11.0631 12.1614C10.8054 12.2682 10.5712 12.4247 10.374 12.6219L5.36398 17.6339C5.12622 17.8715 4.9522 18.1652 4.85798 18.4879L4.02098 21.3579C3.99588 21.444 3.99437 21.5352 4.01662 21.622C4.03887 21.7088 4.08404 21.7881 4.14742 21.8515C4.2108 21.9148 4.29006 21.96 4.37689 21.9823C4.46372 22.0045 4.55493 22.003 4.64098 21.9779L7.51098 21.1409C7.83364 21.0467 8.12735 20.8727 8.36498 20.6349L13.378 15.6259Z" stroke="#09090B" stroke-width="2" stroke-linecap="round" stroke-linejoin="round"/>
</svg>
