<svg width="24" height="24" viewBox="0 0 24 24" fill="none" xmlns="http://www.w3.org/2000/svg">
<path d="M12 2V4M4.93018 4.92993L6.34018 6.33993M20 12H22M19.0702 4.92993L17.6602 6.33993M15.947 12.6501C16.07 11.9046 15.9794 11.1395 15.6857 10.4433C15.3919 9.74717 14.9069 9.14847 14.287 8.71654C13.667 8.28461 12.9374 8.03711 12.1826 8.00269C11.4278 7.96827 10.6787 8.14835 10.022 8.52206M3.00006 20.0001C2.5506 19.4002 2.24176 18.707 2.09639 17.9716C1.95103 17.2363 1.97285 16.4777 2.16025 15.7519C2.34764 15.0261 2.69582 14.3518 3.17902 13.7788C3.66222 13.2057 4.26808 12.7487 4.95177 12.4414C5.63546 12.1341 6.3795 11.9845 7.12882 12.0036C7.87815 12.0227 8.61359 12.21 9.28075 12.5517C9.94791 12.8934 10.5297 13.3807 10.9831 13.9776C11.4365 14.5745 11.7499 15.2657 11.9001 16.0001H13.0001C13.6085 15.9992 14.2029 16.1833 14.7042 16.5281C15.2056 16.8728 15.5903 17.3619 15.8073 17.9303C16.0242 18.4988 16.0632 19.1198 15.919 19.7109C15.7749 20.302 15.4544 20.8353 15.0001 21.2401M11 20V22M7 19V21" stroke="#09090B" stroke-width="2" stroke-linecap="round" stroke-linejoin="round"/>
</svg>
