<svg width="24" height="24" viewBox="0 0 24 24" fill="none" xmlns="http://www.w3.org/2000/svg">
<path d="M10.1001 9C10.336 7.60463 11.0574 6.33754 12.1371 5.42261C13.2167 4.50767 14.5849 4.00379 16.0001 4C15.2044 4.79565 14.7575 5.87478 14.7575 7C14.7575 7.55715 14.8672 8.10885 15.0804 8.62359C15.2936 9.13833 15.6061 9.60603 16.0001 10C16.3941 10.394 16.8618 10.7065 17.3765 10.9197C17.8912 11.1329 18.4429 11.2426 19.0001 11.2426C20.1253 11.2426 21.2044 10.7956 22.0001 10C22.0002 11.0534 21.7231 12.0882 21.1965 13.0005C20.6698 13.9128 19.9123 14.6703 19.0001 15.197M13 16C13.7956 16 14.5587 16.3161 15.1213 16.8787C15.6839 17.4413 16 18.2044 16 19C16 19.7956 15.6839 20.5587 15.1213 21.1213C14.5587 21.6839 13.7956 22 13 22H6.99996C6.05393 21.9998 5.12737 21.7312 4.32788 21.2255C3.5284 20.7197 2.8888 19.9975 2.48339 19.1427C2.07797 18.288 1.92336 17.3358 2.03752 16.3966C2.15168 15.4575 2.52992 14.5701 3.12832 13.8373C3.72672 13.1046 4.52071 12.5567 5.41808 12.2572C6.31545 11.9577 7.27938 11.9189 8.1979 12.1454C9.11642 12.3718 9.95185 12.8542 10.6072 13.5366C11.2625 14.2189 11.7108 15.0731 11.9 16H13Z" stroke="#09090B" stroke-width="2" stroke-linecap="round" stroke-linejoin="round"/>
</svg>
