<svg width="24" height="24" viewBox="0 0 24 24" fill="none" xmlns="http://www.w3.org/2000/svg">
<path d="M17.5 19H9.00004C7.7019 18.9997 6.42943 18.6384 5.32481 17.9565C4.2202 17.2746 3.32696 16.2989 2.74491 15.1386C2.16286 13.9783 1.91493 12.6789 2.02883 11.3858C2.14273 10.0927 2.61397 8.8567 3.38988 7.81598C4.1658 6.77525 5.21583 5.97079 6.42264 5.49248C7.62944 5.01418 8.94548 4.88087 10.2237 5.10746C11.5019 5.33405 12.6919 5.91161 13.6608 6.7756C14.6296 7.63959 15.3391 8.75598 15.71 10H17.5C18.6935 10 19.8381 10.4741 20.682 11.318C21.5259 12.1619 22 13.3065 22 14.5C22 15.6935 21.5259 16.8381 20.682 17.682C19.8381 18.5259 18.6935 19 17.5 19Z" stroke="#09090B" stroke-width="2" stroke-linecap="round" stroke-linejoin="round"/>
</svg>
