<svg width="24" height="24" viewBox="0 0 24 24" fill="none" xmlns="http://www.w3.org/2000/svg">
<path d="M4.19985 15.1001C3.41907 14.3632 2.81825 13.4566 2.44385 12.4504C2.06945 11.4442 1.9315 10.3654 2.04069 9.29737C2.14988 8.22934 2.50327 7.20074 3.07352 6.29111C3.64378 5.38149 4.41563 4.61523 5.32936 4.05158C6.2431 3.48794 7.27424 3.14203 8.34303 3.04059C9.41182 2.93916 10.4896 3.08492 11.4931 3.46661C12.4965 3.84831 13.3987 4.45569 14.1299 5.2418C14.8611 6.02791 15.4017 6.97167 15.7099 8.00009H17.4999C18.4537 8.01295 19.3788 8.32861 20.1416 8.9015C20.9044 9.47439 21.4654 10.2749 21.7436 11.1874C22.0218 12.0999 22.0028 13.0772 21.6894 13.9782C21.376 14.8792 20.7843 15.6573 19.9999 16.2001M15.6998 18.4001L14.7998 18.1001M9.1998 15.9001L8.2998 15.6001M10.6001 20.7001L10.9001 19.8M13.1001 14.2L13.4001 13.3M13.6002 20.7L13.2002 19.7M10.7999 14.3L10.3999 13.3M8.2998 18.6L9.2998 18.2M14.7002 15.7999L15.7002 15.3999M15 17C15 18.6569 13.6569 20 12 20C10.3431 20 9 18.6569 9 17C9 15.3431 10.3431 14 12 14C13.6569 14 15 15.3431 15 17Z" stroke="#09090B" stroke-width="2" stroke-linecap="round" stroke-linejoin="round"/>
</svg>
