<svg width="24" height="24" viewBox="0 0 24 24" fill="none" xmlns="http://www.w3.org/2000/svg">
<path d="M11.9999 17.66C11.4753 18.4052 10.7738 19.0083 9.9584 19.4153C9.14301 19.8222 8.23929 20.0201 7.32846 19.9913C6.41763 19.9625 5.52824 19.7078 4.74021 19.2501C3.95219 18.7924 3.29023 18.1461 2.81384 17.3693C2.33745 16.5924 2.06154 15.7094 2.01093 14.7995C1.96032 13.8896 2.13658 12.9814 2.52388 12.1565C2.91118 11.3317 3.49737 10.6159 4.22977 10.0737C4.96218 9.53144 5.81784 9.17968 6.71985 9.05001C6.48077 8.23032 6.43583 7.36622 6.58857 6.52614C6.74131 5.68606 7.08754 4.89309 7.59985 4.21001C8.11216 3.52693 8.77647 2.97251 9.54018 2.59066C10.3039 2.20881 11.146 2.01001 11.9999 2.01001C12.8537 2.01001 13.6958 2.20881 14.4595 2.59066C15.2232 2.97251 15.8875 3.52693 16.3999 4.21001C16.9122 4.89309 17.2584 5.68606 17.4111 6.52614C17.5639 7.36622 17.5189 8.23032 17.2799 9.05001V9.06001C18.183 9.18851 19.0399 9.53961 19.7736 10.0817C20.5072 10.6238 21.0945 11.3398 21.4826 12.1654C21.8706 12.9909 22.0473 13.9 21.9966 14.8108C21.9459 15.7216 21.6694 16.6055 21.1922 17.3828C20.7149 18.1602 20.0518 18.8067 19.2625 19.264C18.4732 19.7213 17.5826 19.9752 16.6708 20.0027C15.7591 20.0302 14.8547 19.8304 14.0394 19.4215C13.224 19.0125 12.5231 18.4072 11.9999 17.66ZM11.9999 17.66L12 21.9999" stroke="#09090B" stroke-width="2" stroke-linecap="round" stroke-linejoin="round"/>
</svg>
