<svg width="24" height="24" viewBox="0 0 24 24" fill="none" xmlns="http://www.w3.org/2000/svg">
<path d="M14.8298 14.83C14.2702 15.389 13.5575 15.7695 12.7817 15.9235C12.0059 16.0774 11.2018 15.998 10.4712 15.6951C9.74052 15.3922 9.11607 14.8795 8.67674 14.2218C8.23741 13.5641 8.00293 12.7909 8.00293 12C8.00293 11.2091 8.23741 10.4359 8.67674 9.77818C9.11607 9.12048 9.74052 8.60779 10.4712 8.30491C11.2018 8.00203 12.0059 7.92255 12.7817 8.07654C13.5575 8.23052 14.2702 8.61104 14.8298 9.17M22 12C22 17.5228 17.5228 22 12 22C6.47715 22 2 17.5228 2 12C2 6.47715 6.47715 2 12 2C17.5228 2 22 6.47715 22 12Z" stroke="#09090B" stroke-width="2" stroke-linecap="round" stroke-linejoin="round"/>
</svg>
