<svg width="24" height="24" viewBox="0 0 24 24" fill="none" xmlns="http://www.w3.org/2000/svg">
<path d="M5 21H19M11.5619 3.26592C11.6051 3.18753 11.6685 3.12216 11.7456 3.07663C11.8226 3.0311 11.9104 3.00708 11.9999 3.00708C12.0894 3.00708 12.1773 3.0311 12.2543 3.07663C12.3314 3.12216 12.3948 3.18753 12.4379 3.26592L15.3899 8.86992C15.4603 8.99969 15.5586 9.11225 15.6776 9.19954C15.7967 9.28683 15.9336 9.34668 16.0785 9.37478C16.2235 9.40289 16.3728 9.39856 16.5159 9.3621C16.6589 9.32564 16.7921 9.25797 16.9059 9.16392L21.1829 5.49992C21.265 5.43315 21.3662 5.39414 21.4719 5.38853C21.5776 5.38291 21.6823 5.41097 21.771 5.46867C21.8598 5.52637 21.9279 5.61073 21.9656 5.70961C22.0033 5.8085 22.0087 5.9168 21.9809 6.01892L19.1469 16.2649C19.0891 16.4746 18.9645 16.6597 18.7919 16.7921C18.6194 16.9246 18.4084 16.9972 18.1909 16.9989H5.80994C5.59227 16.9974 5.38105 16.9249 5.20833 16.7924C5.03561 16.66 4.91083 16.4748 4.85294 16.2649L2.01994 6.01992C1.99219 5.9178 1.99756 5.8095 2.03528 5.71061C2.073 5.61173 2.14112 5.52737 2.22984 5.46967C2.31855 5.41197 2.42329 5.38391 2.52898 5.38953C2.63466 5.39514 2.73583 5.43415 2.81794 5.50092L7.09394 9.16492C7.20773 9.25897 7.34094 9.32664 7.484 9.3631C7.62705 9.39956 7.77641 9.40389 7.92134 9.37578C8.06626 9.34768 8.20317 9.28783 8.32223 9.20054C8.44129 9.11325 8.53954 9.00069 8.60994 8.87092L11.5619 3.26592Z" stroke="#09090B" stroke-width="2" stroke-linecap="round" stroke-linejoin="round"/>
</svg>
