<svg width="24" height="24" viewBox="0 0 24 24" fill="none" xmlns="http://www.w3.org/2000/svg">
<path d="M8 12H16M2.69991 10.2999C2.47586 10.5237 2.29812 10.7895 2.17685 11.0821C2.05558 11.3746 1.99316 11.6882 1.99316 12.0049C1.99316 12.3216 2.05558 12.6352 2.17685 12.9278C2.29812 13.2203 2.47586 13.4861 2.69991 13.7099L10.2899 21.2999C10.5137 21.524 10.7795 21.7017 11.0721 21.823C11.3646 21.9442 11.6782 22.0067 11.9949 22.0067C12.3116 22.0067 12.6252 21.9442 12.9177 21.823C13.2103 21.7017 13.4761 21.524 13.6999 21.2999L21.2899 13.7099C21.514 13.4861 21.6917 13.2203 21.813 12.9278C21.9342 12.6352 21.9967 12.3216 21.9967 12.0049C21.9967 11.6882 21.9342 11.3746 21.813 11.0821C21.6917 10.7895 21.514 10.5237 21.2899 10.2999L13.6999 2.70992C13.4761 2.48587 13.2103 2.30813 12.9177 2.18686C12.6252 2.06559 12.3116 2.00317 11.9949 2.00317C11.6782 2.00317 11.3646 2.06559 11.0721 2.18686C10.7795 2.30813 10.5137 2.48587 10.2899 2.70992L2.69991 10.2999Z" stroke="#09090B" stroke-width="2" stroke-linecap="round" stroke-linejoin="round"/>
</svg>
