<svg width="24" height="24" viewBox="0 0 24 24" fill="none" xmlns="http://www.w3.org/2000/svg">
<g clip-path="url(#clip0_128_906)">
<path d="M6.47998 3.65999C8.40307 2.38539 10.7077 1.81495 13.0033 2.04538C15.299 2.2758 17.4443 3.29291 19.0757 4.92431C20.7071 6.55571 21.7242 8.70102 21.9546 10.9966C22.185 13.2922 21.6146 15.5969 20.34 17.52M6.41016 6.40991L17.5902 17.5899M3.66024 6.47998C2.38563 8.40307 1.8152 10.7077 2.04562 13.0033C2.27605 15.299 3.29316 17.4443 4.92455 19.0757C6.55595 20.7071 8.70126 21.7242 10.9969 21.9546C13.2925 22.185 15.5971 21.6146 17.5202 20.34M21 19C21 20.1046 20.1046 21 19 21C17.8954 21 17 20.1046 17 19C17 17.8954 17.8954 17 19 17C20.1046 17 21 17.8954 21 19ZM7 5C7 6.10457 6.10457 7 5 7C3.89543 7 3 6.10457 3 5C3 3.89543 3.89543 3 5 3C6.10457 3 7 3.89543 7 5Z" stroke="#09090B" stroke-width="2" stroke-linecap="round" stroke-linejoin="round"/>
</g>
<defs>
<clipPath id="clip0_128_906">
<rect width="24" height="24" fill="white"/>
</clipPath>
</defs>
</svg>
