<svg width="24" height="24" viewBox="0 0 24 24" fill="none" xmlns="http://www.w3.org/2000/svg">
<path d="M20.5001 9.99998C20.1336 9.99274 19.7732 9.90498 19.4443 9.74292C19.1155 9.58086 18.8263 9.34846 18.5973 9.0622C18.3683 8.77594 18.2051 8.44282 18.1192 8.08644C18.0332 7.73006 18.0267 7.35915 18.1001 6.99998H18.0001C17.4821 7.00543 16.9718 6.87438 16.5205 6.62C16.0692 6.36562 15.6929 5.99689 15.4293 5.55089C15.1658 5.1049 15.0243 4.59737 15.0192 4.07935C15.0141 3.56134 15.1455 3.0511 15.4001 2.59998C13.3092 1.83553 11.023 1.79065 8.90377 2.47245C6.7845 3.15424 4.95333 4.52373 3.7004 6.36393C2.44746 8.20413 1.84441 10.4098 1.98679 12.6315C2.12917 14.8532 3.00883 16.9638 4.48641 18.629C5.964 20.2943 7.95499 21.4188 10.144 21.8245C12.3329 22.2302 14.5947 21.8939 16.5709 20.8688C18.5471 19.8437 20.1247 18.1885 21.0538 16.1654C21.9829 14.1423 22.2104 11.867 21.7001 9.69998C21.4001 9.89998 20.9001 9.99998 20.5001 9.99998Z" stroke="#09090B" stroke-width="2" stroke-linecap="round" stroke-linejoin="round"/>
<path d="M12 15C13.6569 15 15 13.6569 15 12C15 10.3431 13.6569 9 12 9C10.3431 9 9 10.3431 9 12C9 13.6569 10.3431 15 12 15Z" stroke="#09090B" stroke-width="2" stroke-linecap="round" stroke-linejoin="round"/>
</svg>
