<svg width="24" height="24" viewBox="0 0 24 24" fill="none" xmlns="http://www.w3.org/2000/svg">
<path d="M10 11H10.01M14 6H14.01M18 6H18.01M6.5 13.1001H6.51M17.4001 9.8999C16.6001 10.6999 15.4001 10.6999 14.6001 9.8999M10.1002 7.1001C9.00019 7.2001 7.70019 7.7001 6.00019 8.6001C2.50019 10.6001 1.30019 12.5001 2.30019 14.2001C6.80019 22.0001 11.8002 22.6001 13.5002 21.6001C14.4002 21.1001 15.4002 19.5001 15.4002 16.9001M9.1001 16.4999C9.4001 15.3999 10.5001 14.7999 11.5001 15.0999M22 5C22 14 18 17 16 17C14 17 10 14 10 5C10 3 12 2 16 2C20 2 22 3 22 5Z" stroke="#09090B" stroke-width="2" stroke-linecap="round" stroke-linejoin="round"/>
</svg>
