<svg width="24" height="24" viewBox="0 0 24 24" fill="none" xmlns="http://www.w3.org/2000/svg">
<path d="M8.28976 12.71L5.68976 15.31C5.37222 15.135 5.02044 15.0312 4.65879 15.0058C4.29714 14.9804 3.93429 15.0339 3.5954 15.1627C3.2565 15.2914 2.94966 15.4924 2.69616 15.7516C2.44266 16.0107 2.24857 16.3219 2.12733 16.6636C2.00609 17.0053 1.96062 17.3692 1.99406 17.7302C2.02749 18.0912 2.13905 18.4406 2.32098 18.7542C2.50291 19.0678 2.75087 19.3381 3.04766 19.5463C3.34445 19.7545 3.68298 19.8956 4.03976 19.96C4.10977 20.3121 4.25481 20.645 4.46501 20.9361C4.67521 21.2272 4.94564 21.4696 5.2579 21.6468C5.57015 21.824 5.91692 21.9318 6.2746 21.963C6.63228 21.9942 6.99248 21.948 7.33069 21.8275C7.66891 21.707 7.97721 21.5151 8.23461 21.2648C8.49202 21.0145 8.69249 20.7117 8.8224 20.377C8.9523 20.0423 9.00859 19.6835 8.98743 19.3251C8.96626 18.9667 8.86815 18.6171 8.69976 18.3L11.2898 15.71M15.3998 15.6301C13.9032 16.1103 12.4185 16.1219 11.1642 15.6632C9.90987 15.2046 8.95225 14.2999 8.43224 13.0824C7.91222 11.8648 7.85729 10.3987 8.27551 8.8997C8.69374 7.40074 9.56304 5.94816 10.7555 4.75572C11.9479 3.56329 13.4005 2.69398 14.8995 2.27576C16.3984 1.85753 17.8646 1.91247 19.0821 2.43248C20.2997 2.95249 21.2044 3.91012 21.663 5.16442C22.1216 6.41872 22.11 7.90344 21.6298 9.40008C20.935 9.00374 20.0541 8.90515 19.1353 9.1209C18.2164 9.33665 17.3156 9.85357 16.5845 10.5847C15.8533 11.3159 15.3364 12.2166 15.1207 13.1355C14.9049 14.0544 15.0035 14.9353 15.3998 15.6301Z" stroke="#09090B" stroke-width="2" stroke-linecap="round" stroke-linejoin="round"/>
</svg>
