<svg width="24" height="24" viewBox="0 0 24 24" fill="none" xmlns="http://www.w3.org/2000/svg">
<g clip-path="url(#clip0_128_978)">
<path d="M14.4001 14.4001L9.6001 9.6001M21.5001 21.5001L20.1001 20.1001M3.9 3.9L2.5 2.5M18.6569 21.4849C18.2819 21.8601 17.7732 22.0709 17.2428 22.071C16.7123 22.071 16.2035 21.8604 15.8284 21.4854C15.4533 21.1104 15.2424 20.6017 15.2423 20.0713C15.2423 19.5408 15.4529 19.032 15.8279 18.6569L14.0609 20.4249C13.6858 20.8 13.1769 21.0108 12.6464 21.0108C12.1159 21.0108 11.607 20.8 11.2319 20.4249C10.8568 20.0498 10.646 19.5409 10.646 19.0104C10.646 18.4799 10.8568 17.9711 11.2319 17.5959L17.5959 11.2319C17.9711 10.8568 18.4799 10.646 19.0104 10.646C19.5409 10.646 20.0498 10.8568 20.4249 11.2319C20.8 11.607 21.0108 12.1159 21.0108 12.6464C21.0108 13.1769 20.8 13.6858 20.4249 14.0609L18.6569 15.8279C19.032 15.4529 19.5408 15.2423 20.0713 15.2423C20.6017 15.2424 21.1104 15.4533 21.4854 15.8284C21.8604 16.2035 22.071 16.7123 22.071 17.2428C22.0709 17.7732 21.8601 18.2819 21.4849 18.6569L18.6569 21.4849ZM6.40376 12.768C6.02861 13.1432 5.5198 13.3539 4.98926 13.3539C4.45872 13.3539 3.94991 13.1432 3.57476 12.768C3.19961 12.3929 2.98886 11.884 2.98886 11.3535C2.98886 10.823 3.19961 10.3142 3.57476 9.93901L5.34276 8.17201C5.15701 8.3577 4.9365 8.50498 4.69382 8.60545C4.45115 8.70592 4.19106 8.7576 3.92841 8.75756C3.39796 8.75746 2.88928 8.54666 2.51426 8.17151C2.32857 7.98575 2.18129 7.76524 2.08082 7.52257C1.98035 7.27989 1.92866 7.0198 1.92871 6.75715C1.9288 6.22671 2.13961 5.71802 2.51476 5.34301L5.34276 2.51501C5.71778 2.13986 6.22646 1.92905 6.75691 1.92896C7.01956 1.92891 7.27965 1.9806 7.52232 2.08106C7.765 2.18153 7.98551 2.32882 8.17126 2.51451C8.35702 2.7002 8.50438 2.92065 8.60493 3.16329C8.70549 3.40593 8.75727 3.666 8.75731 3.92865C8.75736 4.1913 8.70567 4.45139 8.6052 4.69407C8.50474 4.93674 8.35745 5.15725 8.17176 5.34301L9.93876 3.57501C10.3139 3.19986 10.8227 2.9891 11.3533 2.9891C11.8838 2.9891 12.3926 3.19986 12.7678 3.57501C13.1429 3.95016 13.3537 4.45897 13.3537 4.98951C13.3537 5.52005 13.1429 6.02886 12.7678 6.40401L6.40376 12.768Z" stroke="#09090B" stroke-width="2" stroke-linecap="round" stroke-linejoin="round"/>
</g>
<defs>
<clipPath id="clip0_128_978">
<rect width="24" height="24" fill="white"/>
</clipPath>
</defs>
</svg>
