<svg width="24" height="24" viewBox="0 0 24 24" fill="none" xmlns="http://www.w3.org/2000/svg">
<path d="M6 18.5C6 18.9597 6.09053 19.4148 6.26642 19.8394C6.44231 20.2641 6.70012 20.6499 7.02513 20.9749C7.35013 21.2999 7.73597 21.5577 8.16061 21.7336C8.58525 21.9095 9.04037 22 9.5 22C9.95963 22 10.4148 21.9095 10.8394 21.7336C11.264 21.5577 11.6499 21.2999 11.9749 20.9749C12.2999 20.6499 12.5577 20.2641 12.7336 19.8394C12.9095 19.4148 13 18.9597 13 18.5C13 16.93 13.92 15.98 15.04 15.04M6 8.50011C6 7.75011 6.13 7.03011 6.36 6.36011M8.7998 3.14999C9.77547 2.47449 10.9174 2.07898 12.1019 2.00633C13.2864 1.93369 14.4681 2.18669 15.519 2.7379C16.5699 3.2891 17.4499 4.11749 18.0635 5.13323C18.6771 6.14897 19.0009 7.3133 18.9998 8.49999C18.9998 10.13 18.5598 11.31 17.9098 12.26M12.5 6C13.163 6 13.7989 6.26339 14.2678 6.73223C14.7366 7.20107 15 7.83696 15 8.5M10 13C10.3847 12.9992 10.761 12.8874 11.0839 12.6782C11.4067 12.4689 11.6623 12.1709 11.82 11.82M2 2L22 22" stroke="#09090B" stroke-width="2" stroke-linecap="round" stroke-linejoin="round"/>
</svg>
