<svg width="24" height="24" viewBox="0 0 24 24" fill="none" xmlns="http://www.w3.org/2000/svg">
<path d="M14 2V6C14 6.53043 14.2107 7.03914 14.5858 7.41421C14.9609 7.78929 15.4696 8 16 8H20M3.1998 12.9L2.2998 12.5M3.1998 15.1001L2.2998 15.5001M4.677 21.5C5.0398 21.82 5.50627 21.9976 5.99 22H18C18.5304 22 19.0391 21.7893 19.4142 21.4142C19.7893 21.0391 20 20.5304 20 20V7L15 2H6C5.46957 2 4.96086 2.21071 4.58579 2.58579C4.21071 2.96086 4 3.46957 4 4V6.5M4.9 11.2L4.5 10.3M4.9 16.8L4.5 17.7001M7.5001 10.3L7.1001 11.2M7.5001 17.7001L7.1001 16.8M9.6998 12.5L8.7998 12.9M9.6998 15.5001L8.7998 15.1001M9 14C9 15.6569 7.65685 17 6 17C4.34315 17 3 15.6569 3 14C3 12.3431 4.34315 11 6 11C7.65685 11 9 12.3431 9 14Z" stroke="#09090B" stroke-width="2" stroke-linecap="round" stroke-linejoin="round"/>
</svg>
