<svg width="24" height="24" viewBox="0 0 24 24" fill="none" xmlns="http://www.w3.org/2000/svg">
<path d="M14.5 22H18C18.5304 22 19.0391 21.7893 19.4142 21.4142C19.7893 21.0391 20 20.5304 20 20V7L15 2H6C5.46957 2 4.96086 2.21071 4.58579 2.58579C4.21071 2.96086 4 3.46957 4 4V8M14 2V6C14 6.53043 14.2107 7.03914 14.5858 7.41421C14.9609 7.78929 15.4696 8 16 8H20M7 17V22M7 17L11.7 14.2M7 17L2.30005 14.2M3.00008 13.1C2.6919 13.2779 2.43676 13.5348 2.26097 13.8442C2.08519 14.1536 1.99513 14.5042 2.00008 14.86V18.1C1.9885 18.4562 2.07232 18.8091 2.24286 19.122C2.4134 19.435 2.66446 19.6967 2.97008 19.88L6.00008 21.7C6.30676 21.8827 6.65675 21.98 7.01372 21.9817C7.37068 21.9835 7.72161 21.8897 8.03008 21.71L11.0001 19.9C11.3083 19.7222 11.5634 19.4653 11.7392 19.1559C11.915 18.8465 12.005 18.4958 12.0001 18.14V14.9C12.0117 14.5438 11.9278 14.191 11.7573 13.878C11.5868 13.5651 11.3357 13.3034 11.0301 13.12L8.00008 11.3C7.69339 11.1174 7.34341 11.0201 6.98644 11.0183C6.62948 11.0166 6.27855 11.1104 5.97008 11.29L3.00008 13.1Z" stroke="#09090B" stroke-width="2" stroke-linecap="round" stroke-linejoin="round"/>
</svg>
