<svg width="24" height="24" viewBox="0 0 24 24" fill="none" xmlns="http://www.w3.org/2000/svg">
<path d="M18 12V12.5M16.0001 17.9301C14.6993 16.2269 13.9946 14.1432 13.9946 12.0001C13.9946 9.85695 14.6993 7.77328 16.0001 6.07007M6.99998 10.67C6.99998 8 5.57998 5.97 2.72998 5.5C1.72998 7 1.72998 10.5 2.95998 12C1.71998 13.5 1.71998 17 2.72998 18.5C5.57998 18.03 6.99998 16 6.99998 13.33M10.46 7.26001C10.2 5.88001 9.17 4.24001 8 3.00001H13.8C14.2745 2.99826 14.7342 3.16526 15.0969 3.47118C15.4596 3.7771 15.7017 4.20202 15.78 4.67001L16.01 6.07001M16.01 17.93L15.78 19.33C15.7017 19.798 15.4596 20.2229 15.0969 20.5289C14.7342 20.8348 14.2745 21.0018 13.8 21H9.5C10.4689 19.9015 10.9993 18.4847 10.99 17.02M6.5 12C7.44 8.54 11.44 6 15 6C18.56 6 21.06 8.54 22 12C21.06 15.47 18.56 18 15 18C11.44 18 7.44 15.47 6.5 12Z" stroke="#09090B" stroke-width="2" stroke-linecap="round" stroke-linejoin="round"/>
</svg>
