<svg width="24" height="24" viewBox="0 0 24 24" fill="none" xmlns="http://www.w3.org/2000/svg">
<path d="M9.99978 10L4.71978 20.55C4.64268 20.703 4.60618 20.8732 4.61378 21.0444C4.62137 21.2155 4.67281 21.3818 4.76315 21.5274C4.8535 21.6729 4.97972 21.7928 5.12972 21.8756C5.27972 21.9584 5.44847 22.0012 5.61978 22H18.3798C18.5511 22.0012 18.7198 21.9584 18.8698 21.8756C19.0198 21.7928 19.1461 21.6729 19.2364 21.5274C19.3267 21.3818 19.3782 21.2155 19.3858 21.0444C19.3934 20.8732 19.3569 20.703 19.2798 20.55L18.0078 18.008M10 2V4.343M14 2V8.343M8.5 2H15.5M7 16H16M2 2L22 22" stroke="#09090B" stroke-width="2" stroke-linecap="round" stroke-linejoin="round"/>
</svg>
