<svg width="24" height="24" viewBox="0 0 24 24" fill="none" xmlns="http://www.w3.org/2000/svg">
<path d="M2 11.5V5C2 4.46957 2.21071 3.96086 2.58579 3.58579C2.96086 3.21071 3.46957 3 4 3H7.9C8.6 3 9.2 3.3 9.6 3.9L10.4 5.1C10.8 5.7 11.4 6 12.1 6H20C20.5304 6 21.0391 6.21071 21.4142 6.58579C21.7893 6.96086 22 7.46957 22 8V18C22 18.5304 21.7893 19.0391 21.4142 19.4142C21.0391 19.7893 20.5304 20 20 20H10.5M11.378 13.6259C11.5752 13.4287 11.7317 13.1945 11.8384 12.9368C11.9452 12.6791 12.0001 12.4029 12.0001 12.1239C12.0001 11.845 11.9452 11.5687 11.8384 11.311C11.7317 11.0533 11.5752 10.8191 11.378 10.6219C11.1807 10.4247 10.9466 10.2682 10.6889 10.1614C10.4311 10.0547 10.1549 9.99976 9.87598 9.99976C9.59703 9.99976 9.32081 10.0547 9.0631 10.1614C8.80539 10.2682 8.57122 10.4247 8.37398 10.6219L3.36398 15.6339C3.12622 15.8715 2.9522 16.1652 2.85798 16.4879L2.02098 19.3579C1.99588 19.444 1.99437 19.5352 2.01662 19.622C2.03887 19.7088 2.08404 19.7881 2.14742 19.8515C2.2108 19.9148 2.29006 19.96 2.37689 19.9823C2.46372 20.0045 2.55493 20.003 2.64098 19.9779L5.51098 19.1409C5.83364 19.0467 6.12735 18.8727 6.36498 18.6349L11.378 13.6259Z" stroke="#09090B" stroke-width="2" stroke-linecap="round" stroke-linejoin="round"/>
</svg>
