<svg width="24" height="24" viewBox="0 0 24 24" fill="none" xmlns="http://www.w3.org/2000/svg">
<path d="M9 20.0001H4C3.46957 20.0001 2.96086 19.7894 2.58579 19.4143C2.21071 19.0392 2 18.5305 2 18.0001V5.0001C2 4.46966 2.21071 3.96096 2.58579 3.58588C2.96086 3.21081 3.46957 3.0001 4 3.0001H7.9C8.23449 2.99682 8.56445 3.07748 8.8597 3.23472C9.15495 3.39195 9.40604 3.62072 9.59 3.9001L10.4 5.1001C10.5821 5.37663 10.83 5.60362 11.1215 5.7607C11.413 5.91778 11.7389 6.00004 12.07 6.0001H20C20.5304 6.0001 21.0391 6.21081 21.4142 6.58588C21.7893 6.96096 22 7.46966 22 8.0001V8.5001M12 10V14M12 14H16M12 14L13.535 12.395C14.109 11.8433 14.8065 11.4367 15.5694 11.2089C16.3323 10.9812 17.1386 10.9389 17.9211 11.0856C18.7037 11.2324 19.4399 11.5638 20.0684 12.0525C20.697 12.5411 21.1998 13.1728 21.535 13.895M22 22V18M22 18H18M22 18L20.4648 19.605C19.8908 20.1567 19.1933 20.5633 18.4304 20.7911C17.6675 21.0188 16.8612 21.0611 16.0787 20.9144C15.2962 20.7676 14.56 20.4362 13.9314 19.9475C13.3028 19.4589 12.8 18.8272 12.4648 18.105" stroke="#09090B" stroke-width="2" stroke-linecap="round" stroke-linejoin="round"/>
</svg>
