<svg width="24" height="24" viewBox="0 0 24 24" fill="none" xmlns="http://www.w3.org/2000/svg">
<path d="M16 17H20M4 13H8M4.00015 16V13.62C4.00015 11.5 2.97015 10.5 3.00015 8C3.03015 5.28 4.49015 2 7.50015 2C9.37015 2 10.0002 3.8 10.0002 5.5C10.0002 8.61 8.00015 11.16 8.00015 14.18V16C8.00015 16.5304 7.78944 17.0391 7.41437 17.4142C7.0393 17.7893 6.53059 18 6.00015 18C5.46972 18 4.96101 17.7893 4.58594 17.4142C4.21087 17.0391 4.00015 16.5304 4.00015 16ZM20 20V17.62C20 15.5 21.03 14.5 21 12C20.97 9.28 19.51 6 16.5 6C14.63 6 14 7.8 14 9.5C14 12.61 16 15.16 16 18.18V20C16 20.5304 16.2107 21.0391 16.5858 21.4142C16.9609 21.7893 17.4696 22 18 22C18.5304 22 19.0391 21.7893 19.4142 21.4142C19.7893 21.0391 20 20.5304 20 20Z" stroke="#09090B" stroke-width="2" stroke-linecap="round" stroke-linejoin="round"/>
</svg>
