<svg width="24" height="24" viewBox="0 0 24 24" fill="none" xmlns="http://www.w3.org/2000/svg">
<path d="M22 13.29L18.67 3.29C18.6408 3.21823 18.5924 3.15594 18.53 3.11C18.4709 3.04995 18.3935 3.01126 18.31 3C18.2279 2.99853 18.1474 3.02303 18.08 3.07C18.0176 3.11594 17.9692 3.17823 17.94 3.25L15.68 9.92H8.32001L6.10001 3.26C6.08213 3.19263 6.04776 3.13077 6.00001 3.08C5.92619 3.02216 5.83358 2.99367 5.74001 3C5.65789 2.99853 5.57739 3.02303 5.51001 3.07C5.44764 3.11594 5.39918 3.17823 5.37001 3.25L2.00001 13.29C1.95122 13.4391 1.95108 13.5999 1.99961 13.749C2.04815 13.8982 2.14284 14.0281 2.27001 14.12L12 21L21.69 14.12C21.8281 14.0373 21.934 13.9101 21.9904 13.7593C22.0467 13.6085 22.0501 13.443 22 13.29Z" stroke="#09090B" stroke-width="2" stroke-linecap="round" stroke-linejoin="round"/>
</svg>
