<svg width="24" height="24" viewBox="0 0 24 24" fill="none" xmlns="http://www.w3.org/2000/svg">
<path d="M12 13V2L20 6L12 10M20.5612 10.2219C21.0933 11.862 21.1431 13.6205 20.7046 15.2881C20.2661 16.9558 19.3578 18.4623 18.0877 19.6286C16.8177 20.7948 15.2393 21.5717 13.5404 21.8667C11.8415 22.1617 10.0936 21.9625 8.50473 21.2928C6.91581 20.623 5.55272 19.5109 4.57766 18.0888C3.60259 16.6666 3.05658 14.9943 3.00458 13.2708C2.95259 11.5473 3.3968 9.8451 4.28437 8.36677C5.17194 6.88844 6.46551 5.6962 8.01117 4.93188M8.0019 9.99707C7.5008 10.6641 7.17458 11.4459 7.05294 12.2713C6.93131 13.0966 7.01813 13.9393 7.3055 14.7225C7.59287 15.5057 8.07165 16.2046 8.69822 16.7554C9.3248 17.3063 10.0792 17.6916 10.8928 17.8762C11.7064 18.0609 12.5533 18.039 13.3562 17.8127C14.1592 17.5863 14.8928 17.1626 15.4901 16.5802C16.0874 15.9977 16.5295 15.2751 16.7761 14.4781C17.0227 13.6811 17.0659 12.8351 16.9019 12.0171" stroke="#09090B" stroke-width="2" stroke-linecap="round" stroke-linejoin="round"/>
</svg>
