<svg width="24" height="24" viewBox="0 0 24 24" fill="none" xmlns="http://www.w3.org/2000/svg">
<path d="M10.8198 16.1201C12.5098 16.7201 14.7298 16.9101 15.9998 16.9701C16.5498 17.0001 16.9998 16.5501 16.9698 16.0001C16.9098 14.7301 16.7098 12.5001 16.1198 10.8201M15.6201 16.95C15.8201 17.8 16.2401 19.7099 16.1201 21.2299C16.112 21.337 16.0815 21.4412 16.0307 21.5358C15.9799 21.6304 15.9099 21.7133 15.8251 21.7792C15.7403 21.8451 15.6427 21.8926 15.5386 21.9185C15.4344 21.9445 15.3259 21.9484 15.2201 21.93C13.807 21.655 12.4356 21.1979 11.1401 20.57M16.1299 21.0499C17.7799 21.6799 19.8099 21.8899 20.9999 21.9599C21.1282 21.9688 21.257 21.95 21.3775 21.9049C21.498 21.8598 21.6074 21.7894 21.6984 21.6984C21.7894 21.6074 21.8598 21.498 21.9049 21.3775C21.95 21.257 21.9688 21.1282 21.9599 20.9999C21.8899 19.3424 21.5869 17.703 21.0599 16.1299M16.9399 15.6199C17.7999 15.8199 19.7099 16.2399 21.2299 16.1199C21.337 16.1117 21.4412 16.0813 21.5358 16.0304C21.6303 15.9796 21.7133 15.9096 21.7792 15.8249C21.8451 15.7401 21.8926 15.6425 21.9185 15.5383C21.9445 15.4341 21.9484 15.3257 21.9299 15.2199C21.655 13.8068 21.1979 12.4353 20.5699 11.1399M17.9899 5.52002C19.2341 6.87432 20.2933 8.38748 21.1399 10.02C21.1937 10.1382 21.218 10.2676 21.2105 10.3973C21.2031 10.5269 21.1642 10.6527 21.0973 10.764C21.0304 10.8752 20.9374 10.9685 20.8263 11.0357C20.7153 11.103 20.5895 11.1422 20.4599 11.15C18.1299 11.35 15.1599 10.83 12.1899 9.58002M4.9299 4.93L2.9999 3C2.93338 2.93482 2.88053 2.85703 2.84445 2.77117C2.80838 2.68532 2.78979 2.59313 2.78979 2.5C2.78979 2.40687 2.80838 2.31468 2.84445 2.22883C2.88053 2.14297 2.93338 2.06518 2.9999 2M9.58002 12.1799C10.82 15.1599 11.35 18.1299 11.15 20.4599C11.1422 20.5895 11.103 20.7153 11.0357 20.8263C10.9685 20.9373 10.8752 21.0303 10.764 21.0973C10.6527 21.1642 10.5269 21.2031 10.3973 21.2105C10.2676 21.2179 10.1382 21.1937 10.02 21.1399C8.38748 20.2933 6.87432 19.2341 5.52002 17.9899M11.5 6.50003C13.14 6.50003 16.5 6.12003 18.21 5.43003C18.73 5.23003 18.76 4.61003 18.33 4.26003C16.4104 2.69381 13.9777 1.89595 11.5033 2.02107C9.02894 2.14619 6.68911 3.18537 4.93724 4.93724C3.18537 6.68911 2.14619 9.02894 2.02107 11.5033C1.89595 13.9777 2.69381 16.4104 4.26003 18.33C4.61003 18.76 5.22003 18.73 5.43003 18.21C6.12003 16.5 6.50003 13.14 6.50003 11.5C7.84003 11.95 9.60003 12.4 11.38 12.12C11.5645 12.0902 11.7347 12.0024 11.866 11.8693C11.9972 11.7363 12.0827 11.5649 12.11 11.38C12.41 9.24003 11.96 7.88003 11.5 6.50003Z" stroke="#09090B" stroke-width="2" stroke-linecap="round" stroke-linejoin="round"/>
</svg>
