<svg width="24" height="24" viewBox="0 0 24 24" fill="none" xmlns="http://www.w3.org/2000/svg">
<path d="M11 16L6 21M11 21H5C4.46957 21 3.96086 20.7893 3.58579 20.4142C3.21071 20.0391 3 19.5304 3 19V5C3 4.46957 3.21071 3.96086 3.58579 3.58579C3.96086 3.21071 4.46957 3 5 3H19C19.5304 3 20.0391 3.21071 20.4142 3.58579C20.7893 3.96086 21 4.46957 21 5V11.5M15.765 21.9999C15.6893 22.0472 15.6023 22.0734 15.5131 22.0757C15.4239 22.0781 15.3357 22.0565 15.2576 22.0132C15.1796 21.9699 15.1145 21.9066 15.0692 21.8297C15.0239 21.7528 15 21.6651 15 21.5759V13.3799C15 13.2906 15.0239 13.203 15.0692 13.1261C15.1145 13.0492 15.1796 12.9858 15.2576 12.9426C15.3357 12.8993 15.4239 12.8777 15.5131 12.8801C15.6023 12.8824 15.6893 12.9086 15.765 12.9559L21.643 16.6299C21.7868 16.7198 21.9054 16.8448 21.9876 16.9931C22.0699 17.1415 22.113 17.3083 22.113 17.4779C22.113 17.6475 22.0699 17.8143 21.9876 17.9627C21.9054 18.111 21.7868 18.236 21.643 18.3259L15.765 21.9999ZM11 9C11 10.1046 10.1046 11 9 11C7.89543 11 7 10.1046 7 9C7 7.89543 7.89543 7 9 7C10.1046 7 11 7.89543 11 9Z" stroke="#09090B" stroke-width="2" stroke-linecap="round" stroke-linejoin="round"/>
</svg>
