<svg width="24" height="24" viewBox="0 0 24 24" fill="none" xmlns="http://www.w3.org/2000/svg">
<path d="M15.5 7.5L17.8 9.8C17.9869 9.98323 18.2382 10.0859 18.5 10.0859C18.7618 10.0859 19.0131 9.98323 19.2 9.8L21.3 7.7C21.4832 7.51307 21.5859 7.26175 21.5859 7C21.5859 6.73825 21.4832 6.48693 21.3 6.3L19 4M20.9999 2L11.3999 11.6M13 15.5C13 18.5376 10.5376 21 7.5 21C4.46243 21 2 18.5376 2 15.5C2 12.4624 4.46243 10 7.5 10C10.5376 10 13 12.4624 13 15.5Z" stroke="#09090B" stroke-width="2" stroke-linecap="round" stroke-linejoin="round"/>
</svg>
