<svg width="24" height="24" viewBox="0 0 24 24" fill="none" xmlns="http://www.w3.org/2000/svg">
<path d="M2.00005 22C3.25005 21.013 4.27005 20.025 5.90005 19.8C7.31117 19.7997 8.66962 20.3359 9.70005 21.3C10.2348 21.6746 10.8531 21.9126 11.501 21.9933C12.1489 22.0739 12.8067 21.9947 13.4169 21.7626C14.0272 21.5306 14.5713 21.1526 15.0019 20.6618C15.4325 20.171 15.7364 19.5823 15.887 18.947C16.5359 19.0627 17.2041 18.9928 17.815 18.7455C18.4259 18.4981 18.9545 18.0833 19.34 17.5488C19.7255 17.0143 19.9523 16.3818 19.9942 15.7241C20.0362 15.0664 19.8916 14.4102 19.577 13.831C20.1503 13.6458 20.6661 13.3158 21.0744 12.8729C21.4827 12.4299 21.7698 11.8891 21.9079 11.3027C22.046 10.7163 22.0303 10.1042 21.8625 9.52564C21.6947 8.94705 21.3804 8.42157 20.95 8.00004C21.2751 7.67502 21.5329 7.28916 21.7088 6.8645C21.8847 6.43984 21.9752 5.98469 21.9752 5.52504C21.9752 5.06539 21.8847 4.61024 21.7088 4.18558C21.5329 3.76092 21.2751 3.37506 20.95 3.05004C20.625 2.72502 20.2392 2.4672 19.8145 2.2913C19.3898 2.1154 18.9347 2.02486 18.475 2.02486C17.5467 2.02486 16.6565 2.39363 16 3.05004C15.5785 2.61965 15.053 2.30534 14.4744 2.13754C13.8959 1.96974 13.2838 1.95412 12.6974 2.09219C12.111 2.23027 11.5701 2.51736 11.1272 2.9257C10.6843 3.33403 10.3542 3.84978 10.169 4.42304C9.5899 4.10852 8.93371 3.96391 8.27601 4.00584C7.6183 4.04778 6.9858 4.27456 6.45128 4.66009C5.91677 5.04561 5.50197 5.57422 5.2546 6.18508C5.00724 6.79594 4.93738 7.46423 5.05305 8.11304C4.4233 8.2664 3.84026 8.5705 3.3541 8.99915C2.86794 9.4278 2.49323 9.96818 2.26222 10.5738C2.0312 11.1793 1.9508 11.832 2.02794 12.4755C2.10508 13.1191 2.33745 13.7342 2.70505 14.268C3.49905 15.42 4.40905 16.712 4.20005 18.1C3.92605 19.743 3.01405 20.732 2.00005 22ZM2.00005 22L17 7" stroke="#09090B" stroke-width="2" stroke-linecap="round" stroke-linejoin="round"/>
</svg>
