<svg width="24" height="24" viewBox="0 0 24 24" fill="none" xmlns="http://www.w3.org/2000/svg">
<path d="M16.0001 12H19.0001C19.4222 12.0001 19.8335 11.8667 20.1751 11.6188C20.5168 11.3709 20.7712 11.0213 20.9021 10.62L21.9581 7.287C22.0028 7.13769 22.012 6.97999 21.985 6.82649C21.9579 6.67298 21.8954 6.52793 21.8023 6.4029C21.7092 6.27786 21.5882 6.17632 21.4489 6.10637C21.3096 6.03641 21.1559 5.99999 21.0001 6H3.00007C2.8442 5.99999 2.69049 6.03641 2.5512 6.10637C2.41191 6.17632 2.29091 6.27786 2.19784 6.4029C2.10477 6.52793 2.04221 6.67298 2.01517 6.82649C1.98812 6.97999 1.99734 7.13769 2.04207 7.287L3.09807 10.621C3.22909 11.0221 3.48363 11.3715 3.82525 11.6192C4.16688 11.8669 4.5781 12.0002 5.00007 12H8.00007M18 6V3C18 2.73478 17.8946 2.48043 17.7071 2.29289C17.5196 2.10536 17.2652 2 17 2H14M9 10H15C15.5523 10 16 10.4477 16 11V21C16 21.5523 15.5523 22 15 22H9C8.44772 22 8 21.5523 8 21V11C8 10.4477 8.44772 10 9 10Z" stroke="#09090B" stroke-width="2" stroke-linecap="round" stroke-linejoin="round"/>
</svg>
