<svg width="24" height="24" viewBox="0 0 24 24" fill="none" xmlns="http://www.w3.org/2000/svg">
<path d="M7 3V21M4 3H10C10.5523 3 11 3.44772 11 4V20C11 20.5523 10.5523 21 10 21H4C3.44772 21 3 20.5523 3 20V4C3 3.44772 3.44772 3 4 3ZM20.4002 18.9C20.6002 19.4 20.3002 20 19.8002 20.2L17.9002 20.9C17.4002 21.1 16.8002 20.8 16.6002 20.3L11.1002 5.1C10.9002 4.6 11.2002 4 11.7002 3.8L13.6002 3.1C14.1002 2.9 14.7002 3.2 14.9002 3.7L20.4002 18.9Z" stroke="#09090B" stroke-width="2" stroke-linecap="round" stroke-linejoin="round"/>
</svg>
