<svg width="24" height="24" viewBox="0 0 24 24" fill="none" xmlns="http://www.w3.org/2000/svg">
<path d="M16.8002 11.2C17.6002 10.3 18.0002 9.20001 18.0002 8.00001C17.9982 6.91781 17.7036 5.8563 17.1475 4.9279C16.5914 3.99951 15.7946 3.23879 14.8414 2.72634C13.8882 2.21388 12.8142 1.96876 11.7331 2.01694C10.652 2.06511 9.60401 2.4048 8.7002 3.00001M2 2L22 22M6.2999 6.30005C5.94477 7.1856 5.86941 8.15867 6.08395 9.08834C6.29849 10.018 6.79263 10.8597 7.4999 11.5C8.1999 12.2 8.7999 13 8.9999 14M9 18H15M10 22H14" stroke="#09090B" stroke-width="2" stroke-linecap="round" stroke-linejoin="round"/>
</svg>
