<svg width="24" height="24" viewBox="0 0 24 24" fill="none" xmlns="http://www.w3.org/2000/svg">
<path d="M2 12C2 9.2 4.2 7 7 7C9.8 7 12 9.2 12 12M2 12C2 17.5228 6.47715 22 12 22C17.5228 22 22 17.5228 22 12M2 12C2 6.47715 6.47715 2 12 2C17.5228 2 22 6.47715 22 12M12 12C12 14.8 14.2 17 17 17C19.8 17 22 14.8 22 12M12 12C10.8463 11.337 9.47638 11.1593 8.19175 11.5062C6.90713 11.8532 5.81294 12.6962 5.1499 13.8499C4.48686 15.0036 4.30928 16.3734 4.65622 17.6581C5.00316 18.9427 5.84621 20.0369 6.9999 20.6999M12 12C12.5647 12.3283 13.1884 12.5421 13.8357 12.6293C14.4831 12.7165 15.1413 12.6754 15.7727 12.5082C16.4041 12.3411 16.9965 12.0512 17.5159 11.6551C18.0353 11.2591 18.4716 10.7646 18.7999 10.1999C19.1282 9.63522 19.3421 9.0114 19.4293 8.36406C19.5165 7.71673 19.4754 7.05855 19.3082 6.42711C19.1411 5.79567 18.8512 5.20334 18.4551 4.68393C18.0591 4.16452 17.5646 3.72821 16.9999 3.3999M7 3.29992C8.14043 2.63688 9.49754 2.45403 10.7728 2.7916C12.048 3.12916 13.137 3.95949 13.8 5.09992C14.463 6.24035 14.6459 7.59747 14.3083 8.87271C13.9708 10.148 13.1404 11.2369 12 11.8999C10.8596 12.563 10.0292 13.6519 9.69167 14.9271C9.35411 16.2024 9.53696 17.5595 10.2 18.6999C10.863 19.8404 11.952 20.6707 13.2272 21.0082C14.5025 21.3458 15.8596 21.163 17 20.4999" stroke="#09090B" stroke-width="2" stroke-linecap="round" stroke-linejoin="round"/>
</svg>
