<svg width="24" height="24" viewBox="0 0 24 24" fill="none" xmlns="http://www.w3.org/2000/svg">
<path d="M5.43 5.42993C4.50138 6.77322 4.0027 8.36691 4 9.99993C4 15.9999 12 21.9999 12 21.9999C13.8583 20.5366 15.5367 18.8583 17 16.9999M19.18 13.52C19.6978 12.4174 19.9773 11.218 20 10C20 7.87829 19.1571 5.84346 17.6568 4.34317C16.1565 2.84288 14.1217 2.00002 12 2.00002C10.779 1.99695 9.57394 2.27767 8.47998 2.82002M9.13016 9.12988C9.04092 9.41115 8.99704 9.70482 9.00015 9.99988C9.00015 10.7955 9.31623 11.5586 9.87883 12.1212C10.4414 12.6838 11.2045 12.9999 12.0002 12.9999C12.2952 13.003 12.5889 12.9591 12.8702 12.8699M14.9 9.25009C14.7673 8.73082 14.4978 8.2566 14.1197 7.87674C13.7416 7.49688 13.2686 7.22524 12.75 7.09009M2 2L22 22" stroke="#09090B" stroke-width="2" stroke-linecap="round" stroke-linejoin="round"/>
</svg>
