<svg width="24" height="24" viewBox="0 0 24 24" fill="none" xmlns="http://www.w3.org/2000/svg">
<path d="M2 2L22 22M18.8901 13.23C18.9624 12.824 18.9992 12.4124 19.0001 12V10M4.99976 10V12C4.97942 13.3992 5.37888 14.7723 6.1466 15.9422C6.91431 17.1121 8.01504 18.0251 9.30672 18.5633C10.5984 19.1015 12.0217 19.2402 13.393 18.9616C14.7643 18.6829 16.0206 17.9997 16.9998 17M14.9998 9.33999V4.99999C14.9958 4.32636 14.7651 3.6737 14.345 3.14711C13.9249 2.62053 13.3397 2.25066 12.6838 2.09708C12.0279 1.94349 11.3394 2.01514 10.7292 2.30046C10.119 2.58579 9.62253 3.06819 9.31982 3.66999M9 9V12C9.00052 12.593 9.17675 13.1725 9.50643 13.6653C9.83611 14.1582 10.3045 14.5423 10.8523 14.7691C11.4002 14.996 12.0029 15.0554 12.5845 14.9399C13.1661 14.8243 13.7005 14.539 14.12 14.12M12 19V22" stroke="#09090B" stroke-width="2" stroke-linecap="round" stroke-linejoin="round"/>
</svg>
