<svg width="24" height="24" viewBox="0 0 24 24" fill="none" xmlns="http://www.w3.org/2000/svg">
<path d="M12 17V21M8 21H16M10 7.75006C10.0002 7.61685 10.036 7.48611 10.1035 7.37128C10.171 7.25646 10.2679 7.16168 10.3842 7.09671C10.5005 7.03174 10.632 6.99892 10.7652 7.00162C10.8984 7.00432 11.0284 7.04244 11.142 7.11206L14.806 9.36106C14.9152 9.42816 15.0054 9.52213 15.0679 9.634C15.1305 9.74586 15.1633 9.87189 15.1633 10.0001C15.1633 10.1282 15.1305 10.2543 15.0679 10.3661C15.0054 10.478 14.9152 10.572 14.806 10.6391L11.142 12.8891C11.0283 12.9588 10.898 12.9969 10.7647 12.9995C10.6313 13.0021 10.4997 12.9691 10.3833 12.9039C10.267 12.8387 10.1701 12.7437 10.1027 12.6285C10.0354 12.5134 9.99989 12.3824 10 12.2491V7.75006ZM4 3H20C21.1046 3 22 3.89543 22 5V15C22 16.1046 21.1046 17 20 17H4C2.89543 17 2 16.1046 2 15V5C2 3.89543 2.89543 3 4 3Z" stroke="#09090B" stroke-width="2" stroke-linecap="round" stroke-linejoin="round"/>
</svg>
