<svg width="24" height="24" viewBox="0 0 24 24" fill="none" xmlns="http://www.w3.org/2000/svg">
<path d="M12 12V4C12 3.73478 12.1054 3.48043 12.2929 3.29289C12.4804 3.10536 12.7348 3 13 3H19.297C19.5013 3.00002 19.7007 3.0626 19.8683 3.17933C20.036 3.29606 20.1638 3.46133 20.2347 3.65291C20.3056 3.84449 20.3162 4.0532 20.2649 4.25094C20.2136 4.44869 20.1031 4.62599 19.948 4.759L15.252 8.784M12 21L4.586 13.586C4.2109 13.211 4.00011 12.7023 4 12.172V6.41496C4.00099 6.21763 4.06022 6.02499 4.17026 5.86119C4.2803 5.6974 4.43626 5.56974 4.61857 5.49423C4.80088 5.41872 5.00142 5.39872 5.19506 5.43675C5.38869 5.47477 5.56678 5.56912 5.707 5.70796L20 20.009M12.214 3.3811L20.628 18.3471C20.7351 18.5377 20.7767 18.7582 20.7465 18.9747C20.7164 19.1913 20.6161 19.392 20.461 19.5461L19.293 20.7091C19.1054 20.8957 18.8516 21.0003 18.587 21.0001H6.35101C6.12385 21.0002 5.90342 20.923 5.72601 20.7811L3.25001 18.8001C3.08772 18.6703 2.96988 18.4932 2.91288 18.2934C2.85587 18.0936 2.86253 17.881 2.93192 17.6851C3.00132 17.4893 3.13 17.3199 3.30009 17.2005C3.47017 17.0812 3.67322 17.0178 3.88101 17.0191L8.04601 17.0461" stroke="#09090B" stroke-width="2" stroke-linecap="round" stroke-linejoin="round"/>
</svg>
