<svg width="24" height="24" viewBox="0 0 24 24" fill="none" xmlns="http://www.w3.org/2000/svg">
<path d="M14.6219 17.8969L3.94189 14.9839M8.99992 8C7.19592 10.71 5.02992 11.46 2.41692 11.948C2.33024 11.9638 2.24918 12.002 2.18173 12.0587C2.11428 12.1154 2.06277 12.1887 2.03229 12.2713C2.0018 12.354 1.99339 12.4432 2.00788 12.5301C2.02237 12.617 2.05926 12.6987 2.11492 12.767L9.43492 21.65C9.5836 21.8079 9.77959 21.9132 9.99333 21.95C10.2071 21.9868 10.427 21.9531 10.6199 21.854C12.7349 20.405 15.9999 16.792 15.9999 15M18.3759 2.62198C18.573 2.42486 18.807 2.26851 19.0646 2.16183C19.3221 2.05515 19.5982 2.00024 19.8769 2.00024C20.1557 2.00024 20.4317 2.05515 20.6892 2.16183C20.9468 2.26851 21.1808 2.42486 21.3779 2.62198C21.575 2.81909 21.7314 3.0531 21.8381 3.31064C21.9447 3.56819 21.9996 3.84422 21.9996 4.12298C21.9996 4.40174 21.9447 4.67777 21.8381 4.93531C21.7314 5.19286 21.575 5.42686 21.3779 5.62398L17.3599 9.64298C17.2662 9.73674 17.2135 9.8639 17.2135 9.99648C17.2135 10.1291 17.2662 10.2562 17.3599 10.35L18.3039 11.294C18.7558 11.7459 19.0097 12.3589 19.0097 12.998C19.0097 13.6371 18.7558 14.25 18.3039 14.702L17.3599 15.646C17.2661 15.7397 17.139 15.7924 17.0064 15.7924C16.8738 15.7924 16.7467 15.7397 16.6529 15.646L8.35391 7.34798C8.26018 7.25421 8.20752 7.12706 8.20752 6.99448C8.20752 6.8619 8.26018 6.73474 8.35391 6.64098L9.29791 5.69698C9.74987 5.24509 10.3628 4.99123 11.0019 4.99123C11.641 4.99123 12.254 5.24509 12.7059 5.69698L13.6499 6.64098C13.7437 6.73471 13.8708 6.78737 14.0034 6.78737C14.136 6.78737 14.2631 6.73471 14.3569 6.64098L18.3759 2.62198Z" stroke="#09090B" stroke-width="2" stroke-linecap="round" stroke-linejoin="round"/>
</svg>
