<svg width="24" height="24" viewBox="0 0 24 24" fill="none" xmlns="http://www.w3.org/2000/svg">
<path d="M5 2L10 7M2 13H17M19.0001 11L11.0001 3L2.40008 11.6C2.03363 11.9739 1.82837 12.4765 1.82837 13C1.82837 13.5235 2.03363 14.0261 2.40008 14.4L7.60008 19.6C8.40008 20.4 9.60008 20.4 10.4001 19.6L19.0001 11ZM22 20C22 20.5304 21.7893 21.0391 21.4142 21.4142C21.0391 21.7893 20.5304 22 20 22C19.4696 22 18.9609 21.7893 18.5858 21.4142C18.2107 21.0391 18 20.5304 18 20C18 18.4 19.7 17.6 20 16C20.3 17.6 22 18.4 22 20Z" stroke="#09090B" stroke-width="2" stroke-linecap="round" stroke-linejoin="round"/>
</svg>
