<svg width="24" height="24" viewBox="0 0 24 24" fill="none" xmlns="http://www.w3.org/2000/svg">
<path d="M21.44 11.05L12.25 20.24C11.1241 21.3658 9.59717 21.9983 8.00498 21.9983C6.4128 21.9983 4.88583 21.3658 3.75998 20.24C2.63414 19.1141 2.00165 17.5872 2.00165 15.995C2.00165 14.4028 2.63414 12.8758 3.75998 11.75L12.33 3.17997C13.0805 2.42808 14.0991 2.00515 15.1614 2.00421C16.2238 2.00328 17.2431 2.42441 17.995 3.17497C18.7469 3.92554 19.1698 4.94404 19.1707 6.00644C19.1717 7.06883 18.7505 8.08808 18 8.83997L9.40998 17.41C9.0347 17.7853 8.52571 17.9961 7.99498 17.9961C7.46426 17.9961 6.95527 17.7853 6.57998 17.41C6.2047 17.0347 5.99387 16.5257 5.99387 15.995C5.99387 15.4642 6.2047 14.9553 6.57998 14.58L15.07 6.09997" stroke="#09090B" stroke-width="2" stroke-linecap="round" stroke-linejoin="round"/>
</svg>
