<svg width="24" height="24" viewBox="0 0 24 24" fill="none" xmlns="http://www.w3.org/2000/svg">
<path d="M11 6C12.1046 6 13 5.10457 13 4C13 2.89543 12.1046 2 11 2C9.89543 2 9 2.89543 9 4C9 5.10457 9.89543 6 11 6Z" stroke="#09090B" stroke-width="2" stroke-linecap="round" stroke-linejoin="round"/>
<path d="M18 10C19.1046 10 20 9.10457 20 8C20 6.89543 19.1046 6 18 6C16.8954 6 16 6.89543 16 8C16 9.10457 16.8954 10 18 10Z" stroke="#09090B" stroke-width="2" stroke-linecap="round" stroke-linejoin="round"/>
<path d="M20 18C21.1046 18 22 17.1046 22 16C22 14.8954 21.1046 14 20 14C18.8954 14 18 14.8954 18 16C18 17.1046 18.8954 18 20 18Z" stroke="#09090B" stroke-width="2" stroke-linecap="round" stroke-linejoin="round"/>
<path d="M9.00024 10C9.65685 10 10.307 10.1293 10.9137 10.3806C11.5203 10.6319 12.0715 11.0002 12.5358 11.4645C13.0001 11.9288 13.3684 12.48 13.6196 13.0866C13.8709 13.6932 14.0002 14.3434 14.0002 15V18.5C14 19.3365 13.7001 20.1452 13.1551 20.7796C12.61 21.4141 11.8557 21.8324 11.0288 21.9587C10.202 22.085 9.35719 21.9111 8.64753 21.4683C7.93787 21.0255 7.41025 20.3432 7.16024 19.545C6.73357 18.1683 5.83357 17.2667 4.46024 16.84C3.66242 16.5901 2.9804 16.0629 2.5376 15.3538C2.09479 14.6446 1.92045 13.8004 2.04612 12.9739C2.1718 12.1473 2.58918 11.3931 3.22274 10.8476C3.85631 10.3021 4.6642 10.0015 5.50024 10H9.00024Z" stroke="#09090B" stroke-width="2" stroke-linecap="round" stroke-linejoin="round"/>
</svg>
