<svg width="24" height="24" viewBox="0 0 24 24" fill="none" xmlns="http://www.w3.org/2000/svg">
<path d="M10 10L3.84301 16.162C3.61041 16.3944 3.43868 16.6805 3.34301 16.995L2.02101 21.355C1.99479 21.4415 1.99251 21.5335 2.01441 21.6212C2.03631 21.7089 2.08158 21.789 2.14539 21.853C2.2092 21.917 2.28918 21.9626 2.3768 21.9847C2.46442 22.0069 2.55642 22.0049 2.64301 21.979L7.00101 20.656C7.31448 20.5599 7.59951 20.3882 7.83101 20.156L14 13.982M12.8291 7.17202L17.1881 2.82602C17.4498 2.56429 17.7605 2.35668 18.1025 2.21504C18.4445 2.07339 18.811 2.00049 19.1811 2.00049C19.5512 2.00049 19.9177 2.07339 20.2597 2.21504C20.6017 2.35668 20.9124 2.56429 21.1741 2.82602C21.4358 3.08774 21.6434 3.39845 21.7851 3.74041C21.9267 4.08237 21.9996 4.44888 21.9996 4.81902C21.9996 5.18915 21.9267 5.55566 21.7851 5.89762C21.6434 6.23958 21.4358 6.55029 21.1741 6.81202L16.8211 11.165M15 5L19 9M2 2L22 22" stroke="#09090B" stroke-width="2" stroke-linecap="round" stroke-linejoin="round"/>
</svg>
