<svg width="24" height="24" viewBox="0 0 24 24" fill="none" xmlns="http://www.w3.org/2000/svg">
<path d="M14.5309 12.469L6.61888 20.38C6.22105 20.7778 5.68149 21.0013 5.11888 21.0013C4.55627 21.0013 4.0167 20.7778 3.61888 20.38C3.22105 19.9822 2.99756 19.4426 2.99756 18.88C2.99756 18.3174 3.22105 17.7778 3.61888 17.38L11.5309 9.46802M15.686 4.3139C14.1763 3.37339 12.4832 2.76592 10.7199 2.53207C8.95661 2.29823 7.16372 2.44341 5.46102 2.9579C5.30944 3.0544 5.18666 3.18996 5.10559 3.35033C5.02452 3.5107 4.98817 3.68995 5.00035 3.86923C5.01252 4.04851 5.07278 4.2212 5.17479 4.36913C5.2768 4.51707 5.41678 4.63478 5.58002 4.7099C7.85742 5.48772 9.99177 6.63395 11.898 8.1029M19.686 8.31396C20.6264 9.82373 21.2338 11.5168 21.4677 13.2801C21.7015 15.0434 21.5564 16.8363 21.042 18.539C20.9454 18.6903 20.8099 18.8128 20.6496 18.8937C20.4893 18.9746 20.3103 19.0109 20.1312 18.9987C19.9521 18.9866 19.7795 18.9264 19.6317 18.8246C19.4839 18.7227 19.3662 18.583 19.291 18.42C18.5132 16.1422 17.367 14.0075 15.8979 12.101M17.6999 3.69992C17.513 3.51669 17.2617 3.41406 16.9999 3.41406C16.7382 3.41406 16.4868 3.51669 16.2999 3.69992L11.6999 8.29992C11.5167 8.48685 11.4141 8.73817 11.4141 8.99992C11.4141 9.26167 11.5167 9.51299 11.6999 9.69992L14.2999 12.2999C14.4868 12.4831 14.7382 12.5858 14.9999 12.5858C15.2617 12.5858 15.513 12.4831 15.6999 12.2999L20.2999 7.69992C20.4831 7.51299 20.5858 7.26167 20.5858 6.99992C20.5858 6.73817 20.4831 6.48685 20.2999 6.29992L17.6999 3.69992Z" stroke="#09090B" stroke-width="2" stroke-linecap="round" stroke-linejoin="round"/>
</svg>
