<svg width="24" height="24" viewBox="0 0 24 24" fill="none" xmlns="http://www.w3.org/2000/svg">
<path d="M12 17V22M9 10.76C8.9998 11.1321 8.89581 11.4967 8.69972 11.813C8.50363 12.1292 8.22321 12.3844 7.89 12.55L6.11 13.45C5.77679 13.6156 5.49637 13.8708 5.30028 14.187C5.10419 14.5033 5.0002 14.8679 5 15.24V16C5 16.2652 5.10536 16.5196 5.29289 16.7071C5.48043 16.8946 5.73478 17 6 17H18C18.2652 17 18.5196 16.8946 18.7071 16.7071C18.8946 16.5196 19 16.2652 19 16V15.24C18.9998 14.8679 18.8958 14.5033 18.6997 14.187C18.5036 13.8708 18.2232 13.6156 17.89 13.45L16.11 12.55C15.7768 12.3844 15.4964 12.1292 15.3003 11.813C15.1042 11.4967 15.0002 11.1321 15 10.76V7C15 6.73478 15.1054 6.48043 15.2929 6.29289C15.4804 6.10536 15.7348 6 16 6C16.5304 6 17.0391 5.78929 17.4142 5.41421C17.7893 5.03914 18 4.53043 18 4C18 3.46957 17.7893 2.96086 17.4142 2.58579C17.0391 2.21071 16.5304 2 16 2H8C7.46957 2 6.96086 2.21071 6.58579 2.58579C6.21071 2.96086 6 3.46957 6 4C6 4.53043 6.21071 5.03914 6.58579 5.41421C6.96086 5.78929 7.46957 6 8 6C8.26522 6 8.51957 6.10536 8.70711 6.29289C8.89464 6.48043 9 6.73478 9 7V10.76Z" stroke="#09090B" stroke-width="2" stroke-linecap="round" stroke-linejoin="round"/>
</svg>
