<svg width="24" height="24" viewBox="0 0 24 24" fill="none" xmlns="http://www.w3.org/2000/svg">
<path d="M9.99984 4.49996V3.99996C9.99977 3.70257 9.93337 3.40894 9.80549 3.14045C9.6776 2.87196 9.49145 2.63537 9.26059 2.44791C9.02973 2.26044 8.75997 2.12682 8.47095 2.05676C8.18192 1.98671 7.88092 1.982 7.58984 2.04296M13.9001 8.39998C13.8065 8.10039 13.6436 7.82706 13.4247 7.60208C13.2058 7.37711 12.937 7.20682 12.6401 7.10498M21.7001 16.2001C21.9019 15.4842 22.0029 14.7438 22.0001 14.0001V11.0001C22.0001 10.4696 21.7894 9.96091 21.4143 9.58584C21.0393 9.21077 20.5305 9.00005 20.0001 9.00005C19.4697 9.00005 18.961 9.21077 18.5859 9.58584C18.2108 9.96091 18.0001 10.4696 18.0001 11.0001V10.0001C17.9999 9.57602 17.865 9.16303 17.6147 8.8207C17.3645 8.47838 17.0119 8.22445 16.608 8.09558C16.204 7.96671 15.7695 7.96957 15.3673 8.10374C14.965 8.23792 14.6158 8.49647 14.3701 8.84205M6.99986 15L5.19986 13.2C4.81529 12.8591 4.31424 12.6792 3.80064 12.6978C3.28703 12.7165 2.8003 12.9321 2.44142 13.2999C2.08254 13.6678 1.87906 14.1598 1.87318 14.6737C1.8673 15.1876 2.05948 15.684 2.40986 16.06L5.99986 19.7C6.7769 20.4907 7.71474 21.1053 8.7499 21.5021C9.78506 21.8989 10.8934 22.0687 11.9999 22H13.9999C15.0504 22.0001 16.0908 21.7932 17.0614 21.3911C18.032 20.9891 18.914 20.3999 19.6569 19.657M6 6V14M2 2L22 22" stroke="#09090B" stroke-width="2" stroke-linecap="round" stroke-linejoin="round"/>
</svg>
