<svg width="24" height="24" viewBox="0 0 24 24" fill="none" xmlns="http://www.w3.org/2000/svg">
<path d="M18 8C18.5304 8 19.0391 7.78929 19.4142 7.41421C19.7893 7.03914 20 6.53043 20 6C20 5.46957 19.7893 4.96086 19.4142 4.58579C19.0391 4.21071 18.5304 4 18 4C18 3.46957 17.7893 2.96086 17.4142 2.58579C17.0391 2.21071 16.5304 2 16 2C15.4696 2 14.9609 2.21071 14.5858 2.58579C14.2107 2.96086 14 3.46957 14 4C14 3.46957 13.7893 2.96086 13.4142 2.58579C13.0391 2.21071 12.5304 2 12 2C11.4696 2 10.9609 2.21071 10.5858 2.58579C10.2107 2.96086 10 3.46957 10 4C10 3.46957 9.78929 2.96086 9.41421 2.58579C9.03914 2.21071 8.53043 2 8 2C7.46957 2 6.96086 2.21071 6.58579 2.58579C6.21071 2.96086 6 3.46957 6 4C5.46957 4 4.96086 4.21071 4.58579 4.58579C4.21071 4.96086 4 5.46957 4 6C4 6.53043 4.21071 7.03914 4.58579 7.41421C4.96086 7.78929 5.46957 8 6 8M10 22L9 8M14 22L15 8M20 8C20.5 8 20.9 8.4 20.8 9L18.2 21C18.1 21.5 17.5 22 17 22H7C6.4 22 5.9 21.6 5.8 21L3.2 9C3.1 8.4 3.5 8 4 8H20Z" stroke="#09090B" stroke-width="2" stroke-linecap="round" stroke-linejoin="round"/>
</svg>
