<svg width="24" height="24" viewBox="0 0 24 24" fill="none" xmlns="http://www.w3.org/2000/svg">
<path d="M6 18H4C3.46957 18 2.96086 17.7893 2.58579 17.4142C2.21071 17.0391 2 16.5304 2 16V11C2 10.4696 2.21071 9.96086 2.58579 9.58579C2.96086 9.21071 3.46957 9 4 9H20C20.5304 9 21.0391 9.21071 21.4142 9.58579C21.7893 9.96086 22 10.4696 22 11V16C22 16.5304 21.7893 17.0391 21.4142 17.4142C21.0391 17.7893 20.5304 18 20 18H18M6 9V3C6 2.73478 6.10536 2.48043 6.29289 2.29289C6.48043 2.10536 6.73478 2 7 2H17C17.2652 2 17.5196 2.10536 17.7071 2.29289C17.8946 2.48043 18 2.73478 18 3V9M7 14H17C17.5523 14 18 14.4477 18 15V21C18 21.5523 17.5523 22 17 22H7C6.44772 22 6 21.5523 6 21V15C6 14.4477 6.44772 14 7 14Z" stroke="#09090B" stroke-width="2" stroke-linecap="round" stroke-linejoin="round"/>
</svg>
