<svg width="24" height="24" viewBox="0 0 24 24" fill="none" xmlns="http://www.w3.org/2000/svg">
<path d="M6.99023 3.34005C8.89767 2.23728 11.1159 1.79532 13.3004 2.08284C15.4848 2.37036 17.5131 3.37126 19.0702 4.93005L13.4102 10.5899M4 6H4.01M2.28986 9.6201C1.91496 11.1472 1.90544 12.7411 2.26209 14.2725C2.61874 15.804 3.3315 17.2297 4.3425 18.434C5.3535 19.6383 6.63425 20.5872 8.08076 21.2037C9.52728 21.8202 11.0988 22.0869 12.6677 21.9822C14.2366 21.8774 15.7587 21.4041 17.1104 20.6008C18.4621 19.7975 19.6054 18.6867 20.4473 17.3587C21.2892 16.0306 21.8061 14.5228 21.9559 12.9575C22.1058 11.3923 21.8845 9.81376 21.3099 8.3501M16.2398 7.75992C15.6643 7.18108 14.9768 6.72575 14.2192 6.42179C13.4617 6.11783 12.6501 5.97163 11.8342 5.99213C11.0182 6.01263 10.215 6.1994 9.47366 6.54103C8.73236 6.88265 8.06855 7.37193 7.52286 7.97894C6.97717 8.58594 6.56106 9.29791 6.30001 10.0713C6.03895 10.8446 5.93844 11.6631 6.00462 12.4767C6.07079 13.2902 6.30226 14.0817 6.68487 14.8027C7.06748 15.5237 7.59317 16.1591 8.22979 16.6699M12 18H12.01M17.99 11.6599C18.0444 12.6113 17.8714 13.5619 17.4854 14.4332C17.0993 15.3044 16.5113 16.0711 15.77 16.6699M14 12C14 13.1046 13.1046 14 12 14C10.8954 14 10 13.1046 10 12C10 10.8954 10.8954 10 12 10C13.1046 10 14 10.8954 14 12Z" stroke="#09090B" stroke-width="2" stroke-linecap="round" stroke-linejoin="round"/>
</svg>
