<svg width="24" height="24" viewBox="0 0 24 24" fill="none" xmlns="http://www.w3.org/2000/svg">
<path d="M4.9001 16.0999C1.0001 12.1999 1.0001 5.7999 4.9001 1.8999M7.7999 4.69995C6.85121 5.68293 6.25742 6.95422 6.11252 8.31263C5.96763 9.67104 6.27989 11.039 6.9999 12.2M12 11C13.1046 11 14 10.1046 14 9C14 7.89543 13.1046 7 12 7C10.8954 7 10 7.89543 10 9C10 10.1046 10.8954 11 12 11ZM12 11L8 22M12 11L16 22M16.2 4.80005C18.2 6.80005 18.46 9.91005 17 12.27M19.1001 1.8999C20.0271 2.82504 20.7626 3.92393 21.2644 5.13366C21.7662 6.34339 22.0245 7.64022 22.0245 8.9499C22.0245 10.2596 21.7662 11.5564 21.2644 12.7661C20.7626 13.9759 20.0271 15.0748 19.1001 15.9999M9.5 18H14.5" stroke="#09090B" stroke-width="2" stroke-linecap="round" stroke-linejoin="round"/>
</svg>
