<svg width="24" height="24" viewBox="0 0 24 24" fill="none" xmlns="http://www.w3.org/2000/svg">
<path d="M4.9001 19.0999C1.0001 15.1999 1.0001 8.7999 4.9001 4.8999M7.79995 16.2C5.49995 13.9 5.49995 10.1 7.79995 7.69995M16.2 7.80005C18.5 10.1 18.5 13.9 16.2 16.3M19.1001 4.8999C23.0001 8.7999 23.0001 15.0999 19.1001 18.9999M14 12C14 13.1046 13.1046 14 12 14C10.8954 14 10 13.1046 10 12C10 10.8954 10.8954 10 12 10C13.1046 10 14 10.8954 14 12Z" stroke="#09090B" stroke-width="2" stroke-linecap="round" stroke-linejoin="round"/>
</svg>
