<svg width="24" height="24" viewBox="0 0 24 24" fill="none" xmlns="http://www.w3.org/2000/svg">
<path d="M8 12H13M15.9999 9.5001C15.4685 8.87874 14.7593 8.43517 13.9681 8.22915C13.1768 8.02313 12.3414 8.06455 11.5744 8.34784C10.8074 8.63112 10.1456 9.14265 9.67818 9.81354C9.21078 10.4844 8.96021 11.2824 8.96021 12.1001C8.96021 12.9178 9.21078 13.7158 9.67818 14.3867C10.1456 15.0575 10.8074 15.5691 11.5744 15.8524C12.3414 16.1356 13.1768 16.1771 13.9681 15.971C14.7593 15.765 15.4685 15.3215 15.9999 14.7001M4 2V22L6 21L8 22L10 21L12 22L14 21L16 22L18 21L20 22V2L18 3L16 2L14 3L12 2L10 3L8 2L6 3L4 2Z" stroke="#09090B" stroke-width="2" stroke-linecap="round" stroke-linejoin="round"/>
</svg>
