<svg width="24" height="24" viewBox="0 0 24 24" fill="none" xmlns="http://www.w3.org/2000/svg">
<path d="M9 19C9 20.6569 7.65685 22 6 22C4.34315 22 3 20.6569 3 19C3 17.3431 4.34315 16 6 16C7.65685 16 9 17.3431 9 19ZM9 19L17.5 19C17.9 19 18.4 18.9 18.8 18.8M5.19983 5.19995C4.44935 5.5077 3.82796 6.06849 3.44164 6.78669C3.05532 7.5049 2.92799 8.33602 3.08137 9.13833C3.23476 9.94063 3.65935 10.6644 4.28273 11.1863C4.90612 11.7081 5.6897 11.9957 6.49983 12H11.9998M2 2L22 22M21.0002 15.3C20.9523 14.4404 20.5893 13.6285 19.9805 13.0197C19.3717 12.4109 18.5598 12.0479 17.7002 12M15.0002 5H10.7002M15.0002 5C15.0002 6.65685 16.3431 8 18 8C19.6569 8 21 6.65685 21 5C21 3.34315 19.6569 2 18 2C16.3431 2 15.0002 3.34315 15.0002 5Z" stroke="#09090B" stroke-width="2" stroke-linecap="round" stroke-linejoin="round"/>
</svg>
