<svg width="24" height="24" viewBox="0 0 24 24" fill="none" xmlns="http://www.w3.org/2000/svg">
<g clip-path="url(#clip0_128_2220)">
<path d="M14.5 12.5L16.5 10.5M11.5 9.5L13.5 7.5M8.5 6.5L10.5 4.5M17.5 15.5L19.5 13.5M21.3 15.3C21.5238 15.523 21.7013 15.788 21.8225 16.0797C21.9436 16.3714 22.0059 16.6842 22.0059 17C22.0059 17.3159 21.9436 17.6287 21.8225 17.9204C21.7013 18.2121 21.5238 18.4771 21.3 18.7L18.7 21.3C18.4771 21.5238 18.2121 21.7013 17.9204 21.8225C17.6287 21.9436 17.3159 22.0059 17 22.0059C16.6842 22.0059 16.3714 21.9436 16.0797 21.8225C15.788 21.7013 15.523 21.5238 15.3 21.3L2.70005 8.70005C2.2506 8.24842 1.99829 7.6372 1.99829 7.00005C1.99829 6.36289 2.2506 5.75167 2.70005 5.30005L5.30005 2.70005C5.75167 2.2506 6.36289 1.99829 7.00005 1.99829C7.6372 1.99829 8.24842 2.2506 8.70005 2.70005L21.3 15.3Z" stroke="#09090B" stroke-width="2" stroke-linecap="round" stroke-linejoin="round"/>
</g>
<defs>
<clipPath id="clip0_128_2220">
<rect width="24" height="24" fill="white"/>
</clipPath>
</defs>
</svg>
