<svg width="24" height="24" viewBox="0 0 24 24" fill="none" xmlns="http://www.w3.org/2000/svg">
<path d="M10 2V5C10 5.26522 10.1054 5.51957 10.2929 5.70711C10.4804 5.89464 10.7348 6 11 6H16M18 18V12C18 11.7348 17.8946 11.4804 17.7071 11.2929C17.5196 11.1054 17.2652 11 17 11H11C10.7348 11 10.4804 11.1054 10.2929 11.2929C10.1054 11.4804 10 11.7348 10 12V18M18 22H4C3.46957 22 2.96086 21.7893 2.58579 21.4142C2.21071 21.0391 2 20.5304 2 20V6M8 18C7.46957 18 6.96086 17.7893 6.58579 17.4142C6.21071 17.0391 6 16.5304 6 16V4C6 3.46957 6.21071 2.96086 6.58579 2.58579C6.96086 2.21071 7.46957 2 8 2H17.172C17.7024 2.00011 18.211 2.2109 18.586 2.586L21.414 5.414C21.7891 5.78899 21.9999 6.29761 22 6.828V16C22 16.2635 21.9479 16.5244 21.8468 16.7677C21.7457 17.011 21.5975 17.2319 21.4107 17.4178C21.2239 17.6036 21.0022 17.7507 20.7584 17.8506C20.5146 17.9506 20.2535 18.0013 19.99 18H8Z" stroke="#09090B" stroke-width="2" stroke-linecap="round" stroke-linejoin="round"/>
</svg>
