<svg width="24" height="24" viewBox="0 0 24 24" fill="none" xmlns="http://www.w3.org/2000/svg">
<path d="M20.38 3.46L16 2C16 3.06087 15.5786 4.07828 14.8284 4.82843C14.0783 5.57857 13.0609 6 12 6C10.9391 6 9.92173 5.57857 9.17158 4.82843C8.42144 4.07828 8.00001 3.06087 8.00001 2L3.62001 3.46C3.16739 3.61079 2.78359 3.91842 2.53786 4.32734C2.29214 4.73627 2.20069 5.21956 2.28001 5.69L2.86001 9.16C2.89809 9.39491 3.01869 9.60855 3.20015 9.76251C3.38161 9.91648 3.61203 10.0007 3.85001 10H6.00001V20C6.00001 21.1 6.90001 22 8.00001 22H16C16.5304 22 17.0391 21.7893 17.4142 21.4142C17.7893 21.0391 18 20.5304 18 20V10H20.15C20.388 10.0007 20.6184 9.91648 20.7999 9.76251C20.9813 9.60855 21.1019 9.39491 21.14 9.16L21.72 5.69C21.7993 5.21956 21.7079 4.73627 21.4622 4.32734C21.2164 3.91842 20.8326 3.61079 20.38 3.46Z" stroke="#09090B" stroke-width="2" stroke-linecap="round" stroke-linejoin="round"/>
</svg>
