<svg width="24" height="24" viewBox="0 0 24 24" fill="none" xmlns="http://www.w3.org/2000/svg">
<path d="M2.0498 2.05005H4.0498L6.7098 14.47C6.80738 14.9249 7.06048 15.3315 7.42552 15.6199C7.79056 15.9083 8.24471 16.0604 8.7098 16.05H18.4898C18.945 16.0493 19.3863 15.8933 19.7408 15.6079C20.0954 15.3224 20.3419 14.9246 20.4398 14.48L22.0898 7.05005H5.1198M9 21C9 21.5523 8.55228 22 8 22C7.44772 22 7 21.5523 7 21C7 20.4477 7.44772 20 8 20C8.55228 20 9 20.4477 9 21ZM20 21C20 21.5523 19.5523 22 19 22C18.4477 22 18 21.5523 18 21C18 20.4477 18.4477 20 19 20C19.5523 20 20 20.4477 20 21Z" stroke="#09090B" stroke-width="2" stroke-linecap="round" stroke-linejoin="round"/>
</svg>
