<svg width="24" height="24" viewBox="0 0 24 24" fill="none" xmlns="http://www.w3.org/2000/svg">
<path d="M9.5 14.5L16 8M2 22V17L7 12L12 17L7 22H2ZM17.0002 2L22.0002 7L21.5002 7.5C21.1723 7.82896 20.7827 8.08997 20.3537 8.26807C19.9247 8.44616 19.4647 8.53783 19.0002 8.53783C18.5357 8.53783 18.0758 8.44616 17.6468 8.26807C17.2178 8.08997 16.8282 7.82896 16.5002 7.5C16.1713 7.17207 15.9103 6.78243 15.7322 6.35343C15.5541 5.92443 15.4624 5.4645 15.4624 5C15.4624 4.5355 15.5541 4.07557 15.7322 3.64657C15.9103 3.21757 16.1713 2.82793 16.5002 2.5L17.0002 2Z" stroke="#09090B" stroke-width="2" stroke-linecap="round" stroke-linejoin="round"/>
</svg>
