<svg width="24" height="24" viewBox="0 0 24 24" fill="none" xmlns="http://www.w3.org/2000/svg">
<path d="M12 22V15L10 13M14 14L12 16M17.0001 8V8.8C18.1627 9.46723 19.0683 10.5045 19.5726 11.7464C20.0769 12.9883 20.1508 14.3633 19.7826 15.6521C19.4143 16.9409 18.6251 18.0693 17.5409 18.8574C16.4566 19.6454 15.1397 20.0476 13.8001 20H10.0001C8.62909 19.9069 7.32281 19.3817 6.26893 18.4998C5.21505 17.6178 4.4678 16.4246 4.13451 15.0914C3.80121 13.7582 3.89902 12.3537 4.41389 11.0796C4.92876 9.80549 5.8342 8.72734 7.00015 8C7.00015 6.67392 7.52693 5.40215 8.46461 4.46447C9.40229 3.52678 10.6741 3 12.0001 3C13.3262 3 14.598 3.52678 15.5357 4.46447C16.4734 5.40215 17.0001 6.67392 17.0001 8Z" stroke="#09090B" stroke-width="2" stroke-linecap="round" stroke-linejoin="round"/>
</svg>
