<svg width="24" height="24" viewBox="0 0 24 24" fill="none" xmlns="http://www.w3.org/2000/svg">
<path d="M12 13V21M12 3V6M17.9998 6C18.5302 6.00011 19.0388 6.2109 19.4138 6.586L21.7068 8.793C21.8943 8.98053 21.9996 9.23484 21.9996 9.5C21.9996 9.76516 21.8943 10.0195 21.7068 10.207L19.4368 12.391C19.2144 12.6208 18.9402 12.794 18.6371 12.896C18.334 12.9979 18.0108 13.0257 17.6948 12.977L5.99979 13C5.4694 12.9999 4.96077 12.7891 4.58579 12.414L2.29279 10.207C2.10532 10.0195 2 9.76516 2 9.5C2 9.23484 2.10532 8.98053 2.29279 8.793L4.58579 6.586C4.96077 6.2109 5.4694 6.00011 5.99979 6H17.9998Z" stroke="#09090B" stroke-width="2" stroke-linecap="round" stroke-linejoin="round"/>
</svg>
