<svg width="24" height="24" viewBox="0 0 24 24" fill="none" xmlns="http://www.w3.org/2000/svg">
<path d="M13 8.32007C13.6392 9.44121 13.9754 10.7095 13.9754 12.0001C13.9754 13.2906 13.6392 14.5589 13 15.6801M16.46 6.20996C17.459 7.97615 17.9841 9.97079 17.9841 12C17.9841 14.0291 17.459 16.0238 16.46 17.79M19.9102 4.1001C21.2877 6.50473 22.0133 9.22749 22.0151 11.9988C22.0168 14.77 21.2947 17.4937 19.9202 19.9001M3 6H8C8.55228 6 9 6.44772 9 7V17C9 17.5523 8.55228 18 8 18H3C2.44772 18 2 17.5523 2 17V7C2 6.44772 2.44772 6 3 6Z" stroke="#09090B" stroke-width="2" stroke-linecap="round" stroke-linejoin="round"/>
</svg>
