<svg width="24" height="24" viewBox="0 0 24 24" fill="none" xmlns="http://www.w3.org/2000/svg">
<path d="M20 3V7M22 5H18M4 17V19M5 18H3M9.93694 15.5C9.84766 15.1539 9.66728 14.8381 9.41456 14.5854C9.16184 14.3327 8.84601 14.1523 8.49994 14.063L2.36494 12.481C2.26027 12.4513 2.16815 12.3883 2.10255 12.3014C2.03696 12.2146 2.00146 12.1088 2.00146 12C2.00146 11.8912 2.03696 11.7854 2.10255 11.6986C2.16815 11.6118 2.26027 11.5487 2.36494 11.519L8.49994 9.93601C8.84589 9.84681 9.16163 9.66658 9.41434 9.41404C9.66705 9.16151 9.84751 8.84589 9.93694 8.50001L11.5189 2.36501C11.5483 2.25992 11.6113 2.16735 11.6983 2.1014C11.7852 2.03545 11.8913 1.99976 12.0004 1.99976C12.1096 1.99976 12.2157 2.03545 12.3026 2.1014C12.3896 2.16735 12.4525 2.25992 12.4819 2.36501L14.0629 8.50001C14.1522 8.84608 14.3326 9.1619 14.5853 9.41462C14.838 9.66734 15.1539 9.84773 15.4999 9.93701L21.6349 11.518C21.7404 11.5471 21.8335 11.61 21.8998 11.6971C21.9661 11.7841 22.002 11.8906 22.002 12C22.002 12.1094 21.9661 12.2159 21.8998 12.3029C21.8335 12.39 21.7404 12.4529 21.6349 12.482L15.4999 14.063C15.1539 14.1523 14.838 14.3327 14.5853 14.5854C14.3326 14.8381 14.1522 15.1539 14.0629 15.5L12.4809 21.635C12.4515 21.7401 12.3886 21.8327 12.3016 21.8986C12.2147 21.9646 12.1086 22.0003 11.9994 22.0003C11.8903 22.0003 11.7842 21.9646 11.6973 21.8986C11.6103 21.8327 11.5473 21.7401 11.5179 21.635L9.93694 15.5Z" stroke="#09090B" stroke-width="2" stroke-linecap="round" stroke-linejoin="round"/>
</svg>
