<svg width="24" height="24" viewBox="0 0 24 24" fill="none" xmlns="http://www.w3.org/2000/svg">
<path d="M7 20H17M10 20C15.5 17.5 10.8 13.6 13 10M13 10C12.9541 8.58615 13.3376 7.19156 14.1 6C15 5 16.3 4.1 19 4C18.9 6.3 18.3 7.6 17.3 8.6C16.3 9.4 14.9 9.9 13 10ZM9.5 9.40009C10.6 10.2001 11.3 11.6001 11.8 13.1001C9.8 13.5001 8.3 13.5001 7 12.8001C5.8 12.2001 4.7 10.9001 4 8.60009C6.8 8.10009 8.4 8.60009 9.5 9.40009Z" stroke="#09090B" stroke-width="2" stroke-linecap="round" stroke-linejoin="round"/>
</svg>
