<svg width="24" height="24" viewBox="0 0 24 24" fill="none" xmlns="http://www.w3.org/2000/svg">
<path d="M12 3H5C4.46957 3 3.96086 3.21071 3.58579 3.58579C3.21071 3.96086 3 4.46957 3 5V19C3 19.5304 3.21071 20.0391 3.58579 20.4142C3.96086 20.7893 4.46957 21 5 21H19C19.5304 21 20.0391 20.7893 20.4142 20.4142C20.7893 20.0391 21 19.5304 21 19V12M18.3751 2.62498C18.7729 2.22716 19.3125 2.00366 19.8751 2.00366C20.4377 2.00366 20.9773 2.22716 21.3751 2.62498C21.7729 3.02281 21.9964 3.56237 21.9964 4.12498C21.9964 4.68759 21.7729 5.22716 21.3751 5.62498L12.3621 14.639C12.1246 14.8762 11.8313 15.0499 11.5091 15.144L8.63609 15.984C8.55004 16.0091 8.45883 16.0106 8.372 15.9883C8.28517 15.9661 8.20592 15.9209 8.14254 15.8575C8.07916 15.7942 8.03398 15.7149 8.01174 15.6281C7.98949 15.5412 7.991 15.45 8.01609 15.364L8.85609 12.491C8.95062 12.169 9.12463 11.876 9.36209 11.639L18.3751 2.62498Z" stroke="#09090B" stroke-width="2" stroke-linecap="round" stroke-linejoin="round"/>
</svg>
