<svg width="24" height="24" viewBox="0 0 24 24" fill="none" xmlns="http://www.w3.org/2000/svg">
<path d="M15.5899 5.40991L5.40991 15.5899M12.0002 22C12.0002 22 8.00022 13 10.5002 10.5C13.0002 7.99997 22.0002 12 22.0002 12M19 4C19 5.10457 18.1046 6 17 6C15.8954 6 15 5.10457 15 4C15 2.89543 15.8954 2 17 2C18.1046 2 19 2.89543 19 4ZM6 17C6 18.1046 5.10457 19 4 19C2.89543 19 2 18.1046 2 17C2 15.8954 2.89543 15 4 15C5.10457 15 6 15.8954 6 17Z" stroke="#09090B" stroke-width="2" stroke-linecap="round" stroke-linejoin="round"/>
</svg>
