<svg width="24" height="24" viewBox="0 0 24 24" fill="none" xmlns="http://www.w3.org/2000/svg">
<path d="M10.0649 12.4929L3.88491 13.8109C3.64503 13.863 3.39429 13.8185 3.18694 13.6871C2.97959 13.5558 2.83229 13.348 2.77691 13.1089L2.23991 10.9589C2.17677 10.6999 2.21262 10.4266 2.34044 10.1926C2.46825 9.9586 2.67883 9.78076 2.93091 9.69391L16.4349 5.25391M13.5601 11.747L17.8921 10.823M16 21L12.895 14.79M6.1582 8.63306L7.2722 13.0891M8 21L11.105 14.79M16.4849 5.94012C16.3564 5.4256 16.4375 4.88109 16.7103 4.42634C16.9832 3.97158 17.4255 3.64382 17.9399 3.51512L19.0299 3.24312C19.2871 3.17898 19.5591 3.21951 19.7864 3.35583C20.0136 3.49214 20.1775 3.71308 20.2419 3.97012L21.7569 10.0301C21.8214 10.2874 21.781 10.5597 21.6447 10.7872C21.5083 11.0147 21.2872 11.1787 21.0299 11.2431L19.9399 11.5151C19.4254 11.6437 18.8809 11.5626 18.4262 11.2897C17.9714 11.0169 17.6436 10.5746 17.5149 10.0601L16.4849 5.94012ZM14 13C14 14.1046 13.1046 15 12 15C10.8954 15 10 14.1046 10 13C10 11.8954 10.8954 11 12 11C13.1046 11 14 11.8954 14 13Z" stroke="#09090B" stroke-width="2" stroke-linecap="round" stroke-linejoin="round"/>
</svg>
