<svg width="24" height="24" viewBox="0 0 24 24" fill="none" xmlns="http://www.w3.org/2000/svg">
<path d="M10 2H14M4.59999 11C3.99419 12.4562 3.83235 14.059 4.13482 15.607C4.43729 17.1549 5.19058 18.5789 6.29999 19.7C7.42107 20.8094 8.84506 21.5627 10.393 21.8652C11.9409 22.1676 13.5438 22.0058 15 21.4M7.3999 7.40003C8.957 6.31969 10.8471 5.82722 12.7334 6.01035C14.6197 6.19349 16.3797 7.04034 17.6999 8.40003C19.0189 9.72671 19.8312 11.4737 19.9956 13.3372C20.16 15.2007 19.6662 17.0629 18.5999 18.6M2 2L22 22M12 12V10" stroke="#09090B" stroke-width="2" stroke-linecap="round" stroke-linejoin="round"/>
</svg>
