<svg width="24" height="24" viewBox="0 0 24 24" fill="none" xmlns="http://www.w3.org/2000/svg">
<path d="M9.30005 6.19995C10.0822 6.77656 11.0283 7.08764 12 7.08764C12.9717 7.08764 13.9179 6.77656 14.7 6.19995M7.8999 10.7C8.7999 11.5 10.2999 12 11.9999 12C13.6999 12 15.1999 11.5 16.0999 10.7M7.5 12.2001L2.8 14.9001C2.3 15.2001 2 15.6001 2 16.0001C2 16.4001 2.3 16.8001 2.8 17.1001L10.4 21.6001C11.3 22.1001 12.5 22.1001 13.4 21.6001L21 17.1001C21.7 16.8001 22 16.4001 22 16.0001C22 15.6001 21.7 15.2001 21.2 14.9001L16.5 12.1001M13.9 3.50008C13.833 3.05133 13.61 2.64055 13.2702 2.33987C12.9304 2.03918 12.4955 1.86783 12.042 1.85589C11.5884 1.84396 11.1451 1.9922 10.79 2.2746C10.4348 2.55699 10.1905 2.95548 10.1 3.40008L7.1 13.4001C7 13.6001 7 13.8001 7 14.0001C7 15.7001 9.2 17.0001 12 17.0001C14.8 17.0001 17 15.7001 17 14.0001C17 13.8001 17 13.6001 16.9 13.5001L13.9 3.50008Z" stroke="#09090B" stroke-width="2" stroke-linecap="round" stroke-linejoin="round"/>
</svg>
