<svg width="24" height="24" viewBox="0 0 24 24" fill="none" xmlns="http://www.w3.org/2000/svg">
<path d="M12 22V19M17.0001 14L20.0001 17.3C20.1371 17.4398 20.2301 17.6167 20.2676 17.8088C20.305 18.001 20.2852 18.1998 20.2107 18.3808C20.1362 18.5618 20.0102 18.717 19.8483 18.8271C19.6864 18.9371 19.4958 18.9973 19.3001 19H4.70007C4.50434 18.9973 4.31372 18.9371 4.15185 18.8271C3.98998 18.717 3.86396 18.5618 3.78943 18.3808C3.7149 18.1998 3.69513 18.001 3.73258 17.8088C3.77002 17.6167 3.86302 17.4398 4.00007 17.3L7.00007 14H6.70007C6.50434 13.9973 6.31372 13.9371 6.15185 13.8271C5.98998 13.717 5.86396 13.5619 5.78943 13.3808C5.7149 13.1998 5.69513 13.001 5.73258 12.8088C5.77002 12.6167 5.86302 12.4398 6.00007 12.3L9.00007 9H8.80007C8.59581 9.01843 8.39084 8.97361 8.21291 8.87162C8.03499 8.76963 7.89273 8.6154 7.8054 8.42984C7.71808 8.24428 7.68992 8.03636 7.72474 7.83425C7.75956 7.63215 7.85568 7.44564 8.00007 7.3L12.0001 3L16.0001 7.3C16.1445 7.44564 16.2406 7.63215 16.2754 7.83425C16.3102 8.03636 16.2821 8.24428 16.1947 8.42984C16.1074 8.6154 15.9651 8.76963 15.7872 8.87162C15.6093 8.97361 15.4043 9.01843 15.2001 9H15.0001L18.0001 12.3C18.1371 12.4398 18.2301 12.6167 18.2676 12.8088C18.305 13.001 18.2852 13.1998 18.2107 13.3808C18.1362 13.5619 18.0102 13.717 17.8483 13.8271C17.6864 13.9371 17.4958 13.9973 17.3001 14H17.0001Z" stroke="#09090B" stroke-width="2" stroke-linecap="round" stroke-linejoin="round"/>
</svg>
