<svg width="24" height="24" viewBox="0 0 24 24" fill="none" xmlns="http://www.w3.org/2000/svg">
<path d="M12 19V22M7.99993 19C7.14193 19.0019 6.30604 18.7279 5.61569 18.2184C4.92534 17.7089 4.41711 16.9909 4.16605 16.1705C3.91498 15.35 3.93438 14.4706 4.22138 13.662C4.50839 12.8534 5.04778 12.1586 5.75993 11.68C5.32086 11.1314 5.05709 10.4633 5.00294 9.76273C4.9488 9.06214 5.10678 8.36148 5.45633 7.75191C5.80589 7.14235 6.33083 6.65212 6.96284 6.34501C7.59485 6.0379 8.30467 5.92813 8.99993 6.03V6C8.99993 5.20435 9.316 4.44129 9.87861 3.87868C10.4412 3.31607 11.2043 3 11.9999 3C12.7956 3 13.5586 3.31607 14.1212 3.87868C14.6839 4.44129 14.9999 5.20435 14.9999 6V6.04C15.6952 5.93813 16.405 6.0479 17.037 6.35501C17.669 6.66212 18.194 7.15235 18.5435 7.76191C18.8931 8.37148 19.0511 9.07214 18.9969 9.77273C18.9428 10.4733 18.679 11.1414 18.2399 11.69C18.9476 12.1702 19.4828 12.8645 19.7669 13.6712C20.051 14.4778 20.0691 15.3543 19.8185 16.1719C19.568 16.9896 19.0619 17.7055 18.3747 18.2144C17.6874 18.7234 16.8551 18.9987 15.9999 19H7.99993Z" stroke="#09090B" stroke-width="2" stroke-linecap="round" stroke-linejoin="round"/>
</svg>
