<svg width="24" height="24" viewBox="0 0 24 24" fill="none" xmlns="http://www.w3.org/2000/svg">
<path d="M13.73 4C13.5542 3.69692 13.3019 3.44535 12.9983 3.27047C12.6946 3.09559 12.3504 3.00354 12 3.00354C11.6496 3.00354 11.3054 3.09559 11.0018 3.27047C10.6982 3.44535 10.4458 3.69692 10.27 4L2.27003 18C2.09458 18.3039 2.00217 18.6486 2.00208 18.9995C2.00199 19.3504 2.09422 19.6951 2.26951 19.9991C2.44481 20.3031 2.69699 20.5556 3.00074 20.7313C3.3045 20.907 3.64913 20.9996 4.00003 21H20C20.3509 20.9996 20.6956 20.907 20.9993 20.7313C21.3031 20.5556 21.5552 20.3031 21.7305 19.9991C21.9058 19.6951 21.9981 19.3504 21.998 18.9995C21.9979 18.6486 21.9055 18.3039 21.73 18L13.73 4Z" stroke="#09090B" stroke-width="2" stroke-linecap="round" stroke-linejoin="round"/>
</svg>
