<svg width="24" height="24" viewBox="0 0 24 24" fill="none" xmlns="http://www.w3.org/2000/svg">
<path d="M2 2C5.0186 4.40804 7.47673 7.44442 9.20362 10.8982C10.9305 14.352 11.8847 18.1403 12 22C12.9 15.18 13.5 12.5 16 8M16 8C20 8 22 6 22 2C18 2 16 4 16 8ZM17.4101 3.5999C15.335 2.26497 12.8395 1.74439 10.4037 2.13827C7.96787 2.53216 5.76367 3.81269 4.21499 5.73362C2.6663 7.65455 1.88249 10.0802 2.01429 12.5442C2.14608 15.0081 3.18418 17.3363 4.92894 19.0811C6.6737 20.8259 9.00193 21.864 11.4659 21.9958C13.9298 22.1276 16.3555 21.3437 18.2764 19.7951C20.1974 18.2464 21.4779 16.0422 21.8718 13.6063C22.2657 11.1705 21.7451 8.67507 20.4101 6.5999" stroke="#09090B" stroke-width="2" stroke-linecap="round" stroke-linejoin="round"/>
</svg>
