<svg width="24" height="24" viewBox="0 0 24 24" fill="none" xmlns="http://www.w3.org/2000/svg">
<path d="M10.6602 6H14.0002C14.5306 6 15.0393 6.21071 15.4144 6.58579C15.7894 6.96086 16.0002 7.46957 16.0002 8V10.5L21.2482 7.438C21.3241 7.39366 21.4105 7.37015 21.4985 7.36985C21.5864 7.36956 21.6729 7.39248 21.7492 7.4363C21.8255 7.48012 21.8889 7.5433 21.9329 7.61945C21.977 7.6956 22.0002 7.78202 22.0002 7.87V16.066M16 16C16 16.5304 15.7893 17.0391 15.4142 17.4142C15.0391 17.7893 14.5304 18 14 18H4C3.46957 18 2.96086 17.7893 2.58579 17.4142C2.21071 17.0391 2 16.5304 2 16V8C2 7.46957 2.21071 6.96086 2.58579 6.58579C2.96086 6.21071 3.46957 6 4 6H6M2 2L22 22" stroke="#09090B" stroke-width="2" stroke-linecap="round" stroke-linejoin="round"/>
</svg>
