<svg width="24" height="24" viewBox="0 0 24 24" fill="none" xmlns="http://www.w3.org/2000/svg">
<path d="M16 13L21.223 16.482C21.2983 16.5321 21.3858 16.5609 21.4761 16.5652C21.5664 16.5695 21.6563 16.5493 21.736 16.5066C21.8157 16.4639 21.8824 16.4004 21.9289 16.3228C21.9754 16.2452 22 16.1565 22 16.066V7.87002C22 7.78204 21.9768 7.69562 21.9328 7.61947C21.8887 7.54332 21.8253 7.48014 21.7491 7.43632C21.6728 7.3925 21.5863 7.36958 21.4983 7.36988C21.4103 7.37017 21.324 7.39368 21.248 7.43802L16 10.5M4 6H14C15.1046 6 16 6.89543 16 8V16C16 17.1046 15.1046 18 14 18H4C2.89543 18 2 17.1046 2 16V8C2 6.89543 2.89543 6 4 6Z" stroke="#09090B" stroke-width="2" stroke-linecap="round" stroke-linejoin="round"/>
</svg>
