<svg width="24" height="24" viewBox="0 0 24 24" fill="none" xmlns="http://www.w3.org/2000/svg">
<path d="M14 7L17 10M5 6V10M19 14V18M10 2V4M7 8H3M21 16H17M11 3H9M21.6398 3.64005L20.3598 2.36004C20.2473 2.24636 20.1133 2.15612 19.9657 2.09452C19.8181 2.03293 19.6598 2.00122 19.4998 2.00122C19.3399 2.00122 19.1815 2.03293 19.0339 2.09452C18.8863 2.15612 18.7523 2.24636 18.6398 2.36004L2.3598 18.64C2.24612 18.7526 2.15587 18.8865 2.09428 19.0341C2.03269 19.1817 2.00098 19.3401 2.00098 19.5C2.00098 19.66 2.03269 19.8184 2.09428 19.966C2.15587 20.1136 2.24612 20.2475 2.3598 20.36L3.6398 21.64C3.75162 21.755 3.88534 21.8463 4.03305 21.9087C4.18076 21.971 4.33947 22.0031 4.4998 22.0031C4.66014 22.0031 4.81885 21.971 4.96656 21.9087C5.11427 21.8463 5.24798 21.755 5.3598 21.64L21.6398 5.36005C21.7547 5.24822 21.846 5.11451 21.9084 4.9668C21.9708 4.81909 22.0029 4.66038 22.0029 4.50005C22.0029 4.33971 21.9708 4.181 21.9084 4.03329C21.846 3.88558 21.7547 3.75187 21.6398 3.64005Z" stroke="#09090B" stroke-width="2" stroke-linecap="round" stroke-linejoin="round"/>
</svg>
