<svg width="24" height="24" viewBox="0 0 24 24" fill="none" xmlns="http://www.w3.org/2000/svg">
<path d="M12 8C13.6569 8 15 6.65685 15 5C15 3.34315 13.6569 2 12 2C10.3431 2 9 3.34315 9 5C9 6.65685 10.3431 8 12 8Z" stroke="#09090B" stroke-width="2" stroke-linecap="round" stroke-linejoin="round"/>
<path d="M6.50022 8C6.06747 8.00449 5.64786 8.14923 5.30437 8.41248C4.96087 8.67573 4.71204 9.0433 4.59521 9.46L2.10021 18.5C2.02462 18.7926 2.0163 19.0985 2.0759 19.3947C2.13549 19.691 2.26145 19.9699 2.4443 20.2105C2.62715 20.4511 2.86214 20.6471 3.13162 20.7839C3.40111 20.9206 3.69807 20.9945 4.00022 21H20.0002C20.3089 20.9999 20.6133 20.9283 20.8898 20.7909C21.1662 20.6535 21.407 20.454 21.5935 20.208C21.7799 19.962 21.9069 19.6762 21.9644 19.3729C22.022 19.0697 22.0086 18.7572 21.9252 18.46L19.4002 9.5C19.2901 9.07341 19.0422 8.69512 18.695 8.42388C18.3478 8.15265 17.9208 8.00364 17.4802 8H6.50022Z" stroke="#09090B" stroke-width="2" stroke-linecap="round" stroke-linejoin="round"/>
</svg>
