<svg width="24" height="24" viewBox="0 0 24 24" fill="none" xmlns="http://www.w3.org/2000/svg">
<path d="M17.7 7.70011C17.9927 7.41826 18.3497 7.21202 18.7401 7.09922C19.1304 6.98643 19.5424 6.97049 19.9403 7.05278C20.3383 7.13507 20.7101 7.31312 21.0237 7.5715C21.3373 7.82988 21.5832 8.16081 21.7401 8.53563C21.897 8.91045 21.9602 9.31787 21.9242 9.72261C21.8882 10.1274 21.754 10.5172 21.5334 10.8584C21.3128 11.1996 21.0123 11.4819 20.658 11.6809C20.3037 11.8798 19.9062 11.9894 19.5 12.0001H2M9.6 4.60005C9.83168 4.36375 10.1184 4.18864 10.4344 4.0904C10.7504 3.99216 11.0858 3.97387 11.4106 4.03717C11.7355 4.10047 12.0395 4.24338 12.2955 4.45309C12.5515 4.66279 12.7514 4.93275 12.8774 5.23874C13.0034 5.54474 13.0515 5.87723 13.0174 6.20639C12.9833 6.53555 12.8681 6.85111 12.682 7.12477C12.4959 7.39843 12.2449 7.62164 11.9513 7.7744C11.6578 7.92716 11.3309 8.0047 11 8.00005H2M12.6 19.4C12.8317 19.6362 13.1184 19.8114 13.4344 19.9096C13.7504 20.0078 14.0858 20.0261 14.4106 19.9628C14.7355 19.8995 15.0395 19.7566 15.2955 19.5469C15.5515 19.3372 15.7514 19.0673 15.8774 18.7613C16.0034 18.4553 16.0515 18.1228 16.0174 17.7936C15.9833 17.4645 15.8681 17.1489 15.682 16.8752C15.4959 16.6016 15.2449 16.3784 14.9513 16.2256C14.6578 16.0728 14.3309 15.9953 14 16H2" stroke="#09090B" stroke-width="2" stroke-linecap="round" stroke-linejoin="round"/>
</svg>
