<svg width="24" height="24" viewBox="0 0 24 24" fill="none" xmlns="http://www.w3.org/2000/svg">
<path d="M10.5129 4.85592L13.1199 2.16992C13.1942 2.0842 13.2954 2.02628 13.4069 2.00565C13.5184 1.98503 13.6337 2.00293 13.7337 2.05642C13.8337 2.10991 13.9125 2.19582 13.9573 2.30003C14.002 2.40424 14.01 2.52057 13.9799 2.62992L12.6029 6.94692M15.656 10H20C20.1892 9.99936 20.3748 10.0524 20.5351 10.153C20.6953 10.2536 20.8238 10.3977 20.9055 10.5683C20.9871 10.739 21.0187 10.9294 20.9965 11.1173C20.9743 11.3053 20.8992 11.483 20.78 11.63L19.06 13.403M16.273 16.2731L10.88 21.83C10.8057 21.9158 10.7045 21.9737 10.593 21.9943C10.4815 22.0149 10.3663 21.997 10.2663 21.9435C10.1663 21.8901 10.0874 21.8042 10.0427 21.6999C9.99791 21.5957 9.98991 21.4794 10.02 21.3701L11.94 15.3501C11.9966 15.1985 12.0156 15.0355 11.9954 14.875C11.9752 14.7146 11.9163 14.5614 11.8239 14.4286C11.7315 14.2959 11.6082 14.1875 11.4647 14.1129C11.3212 14.0382 11.1617 13.9995 11 14.0001H3.99999C3.81076 14.0007 3.62522 13.9476 3.46495 13.847C3.30467 13.7464 3.17623 13.6024 3.09454 13.4317C3.01286 13.261 2.98129 13.0706 3.00349 12.8827C3.0257 12.6948 3.10077 12.517 3.21999 12.3701L7.72699 7.72705M2 2L22 22" stroke="#09090B" stroke-width="2" stroke-linecap="round" stroke-linejoin="round"/>
</svg>
